<svg xmlns="http://www.w3.org/2000/svg" fill="none" viewBox="0 0 48 48"><g id="graph-dot--product-data-bars-analysis-analytics-graph-business-chart-dot"><path id="Union" fill="#000" d="M5 3a2 2 0 1 0-4 0c0 16.326.302 32.346.437 38.692a4.972 4.972 0 0 0 4.87 4.871C12.655 46.698 28.675 47 45 47a2 2 0 1 0 0-4c-16.284 0-32.272-.301-38.607-.436a.972.972 0 0 1-.957-.957c-.031-1.454-.07-3.417-.114-5.775 2.294-4.322 5.56-8.923 8.296-12.49.461-.6.906-1.171 1.327-1.703A5.99 5.99 0 0 0 17 22c1.05 0 2.036-.27 2.894-.743 2.116 1.72 4.309 3.316 6.218 4.637.36.25.71.49 1.049.72a6 6 0 1 0 9.35-3.479 168.706 168.706 0 0 1 3.235-9.14 6 6 0 1 0-3.712-1.492 172.18 172.18 0 0 0-3.362 9.506 5.97 5.97 0 0 0-3.34 1.243c-.306-.207-.621-.423-.944-.646a99.277 99.277 0 0 1-5.83-4.34 6 6 0 1 0-10.699.827 151.99 151.99 0 0 0-1.415 1.815c-1.636 2.133-3.494 4.674-5.246 7.345C5.093 20.995 5 12.043 5 3Z"></path></g></svg>