<?xml version="1.0" encoding="UTF-8" standalone="no"?>
<!DOCTYPE svg PUBLIC "-//W3C//DTD SVG 1.1//EN" "http://www.w3.org/Graphics/SVG/1.1/DTD/svg11.dtd">
<svg width="100%" height="100%" viewBox="0 0 1262 791" version="1.1" xmlns="http://www.w3.org/2000/svg" xmlns:xlink="http://www.w3.org/1999/xlink" xml:space="preserve" xmlns:serif="http://www.serif.com/" style="fill-rule:evenodd;clip-rule:evenodd;stroke-miterlimit:10;">
    <g transform="matrix(3.125,0,0,3.125,0,0)">
        <g id="Artboard1" transform="matrix(1,0,0,1,-29.2667,-14.7357)">
            <rect x="29.267" y="14.736" width="403.53" height="252.989" style="fill:none;"/>
            <clipPath id="_clip1">
                <rect x="29.267" y="14.736" width="403.53" height="252.989"/>
            </clipPath>
            <g clip-path="url(#_clip1)">
                <g transform="matrix(1,0,0,1,-74.7047,-68.214)">
                    <clipPath id="_clip2">
                        <rect x="104.238" y="83.686" width="403.53" height="252.989" clip-rule="nonzero"/>
                    </clipPath>
                    <g clip-path="url(#_clip2)">
                        <g transform="matrix(0.393365,0,0,-0.393365,74.9714,395.443)">
                            <rect x="0" y="0" width="1170" height="830" style="fill:white;"/>
                        </g>
                        <g transform="matrix(0.393365,0,0,-0.393365,74.9714,394.656)">
                            <rect x="0" y="0" width="1170" height="828" style="fill:white;"/>
                        </g>
                        <g transform="matrix(0.393365,0,0,-0.393365,75.1681,304.28)">
                            <path d="M357.11,263.25L357.1,334.45L203.73,334.5" style="fill:none;fill-rule:nonzero;stroke:black;stroke-width:1px;"/>
                        </g>
                        <g transform="matrix(0.351836,-0.175918,0.175918,0.351836,37.2456,115.611)">
                            <path d="M198.85,261.685L206.676,261.685L203.545,264.033L203.545,267.946L198.85,261.685Z" style="fill-rule:nonzero;stroke:black;stroke-width:1px;"/>
                        </g>
                        <g transform="matrix(0.393365,0,0,-0.393365,74.9714,277.04)">
                            <rect x="239" y="258" width="51" height="13" style="fill:white;"/>
                        </g>
                        <g transform="matrix(4.32702,0,0,4.32702,189.107,174.372)">
                        </g>
                        <text x="168.912px" y="174.372px" style="font-family:'ArialMT', 'Arial', sans-serif;font-size:4.327px;">dc:created</text>
                        <g transform="matrix(0.393365,0,0,-0.393365,75.1681,288.743)">
                            <path d="M357.11,223.75L357.1,334.45L203.73,334.5" style="fill:none;fill-rule:nonzero;stroke:black;stroke-width:1px;"/>
                        </g>
                        <g transform="matrix(0.351836,-0.175918,0.175918,0.351836,44.1943,113.97)">
                            <path d="M198.85,222.185L206.676,222.185L203.545,224.533L203.545,228.446L198.85,222.185Z" style="fill-rule:nonzero;stroke:black;stroke-width:1px;"/>
                        </g>
                        <g transform="matrix(0.393365,0,0,-0.393365,74.9714,245.571)">
                            <rect x="214" y="218" width="123" height="13" style="fill:white;"/>
                        </g>
                        <g transform="matrix(0.393365,0,0,-0.393365,75.1681,318.599)">
                            <path d="M390.86,292.77L460.7,292.75L460.7,341.35L524.13,341.4" style="fill:none;fill-rule:nonzero;stroke:black;stroke-width:1px;"/>
                        </g>
                        <g transform="matrix(-0.351635,0.17632,-0.17632,-0.351635,518.568,194.529)">
                            <path d="M522.747,291.2L530.578,291.2L527.44,293.553L527.44,297.458L522.747,291.2Z" style="fill-rule:nonzero;stroke:black;stroke-width:1px;"/>
                        </g>
                        <g transform="matrix(0.393365,0,0,-0.393365,74.9714,314.803)">
                            <rect x="418" y="306" width="91" height="13" style="fill:white;"/>
                        </g>
                        <g transform="matrix(0.393365,0,0,-0.393365,75.1681,370.712)">
                            <path d="M357.11,404.63L357.1,380.13L381,380.13L381,362" style="fill:none;fill-rule:nonzero;stroke:black;stroke-width:1px;"/>
                        </g>
                        <g transform="matrix(-0.175918,-0.351836,0.351836,-0.175918,149.086,434.541)">
                            <path d="M377.87,404.815L385.696,404.815L382.565,407.163L382.565,411.076L377.87,404.815Z" style="fill-rule:nonzero;stroke:black;stroke-width:1px;"/>
                        </g>
                        <g transform="matrix(0.393365,0,0,-0.393365,74.9714,371.448)">
                            <rect x="346" y="378" width="81" height="13" style="fill:white;"/>
                        </g>
                        <g transform="matrix(4.32702,0,0,4.32702,207.492,158.637)">
                        </g>
                        <text x="159.176px" y="158.637px" style="font-family:'ArialMT', 'Arial', sans-serif;font-size:4.327px;">observatory:post_metrics</text>
                        <g transform="matrix(4.32702,0,0,4.32702,275.322,193.253)">
                        </g>
                        <text x="239.257px" y="193.253px" style="font-family:'ArialMT', 'Arial', sans-serif;font-size:4.327px;">sioc:has_container</text>
                        <g transform="matrix(4.32702,0,0,4.32702,242.865,221.575)">
                        </g>
                        <text x="211.131px" y="221.575px" style="font-family:'ArialMT', 'Arial', sans-serif;font-size:4.327px;">sioc:has_creator</text>
                        <g transform="matrix(0.393365,0,0,-0.393365,75.1681,376.011)">
                            <path d="M390.86,424.97L493,425L493,355.1L657.63,355.1" style="fill:none;fill-rule:nonzero;stroke:black;stroke-width:1px;"/>
                        </g>
                        <g transform="matrix(-0.351836,0.175918,-0.175918,-0.351836,641.304,269.86)">
                            <path d="M656.25,423.435L664.076,423.435L660.945,425.783L660.945,429.696L656.25,423.435Z" style="fill-rule:nonzero;stroke:black;stroke-width:1px;"/>
                        </g>
                        <g transform="matrix(0.393365,0,0,-0.393365,74.9714,404.49)">
                            <rect x="529" y="420" width="87" height="13" style="fill:white;"/>
                        </g>
                        <g transform="matrix(0.393365,0,0,-0.393365,75.1681,303.643)">
                            <path d="M373.99,261.63L374,337.13L684,337.13L684,259" style="fill:none;fill-rule:nonzero;stroke:black;stroke-width:1px;"/>
                        </g>
                        <g transform="matrix(-0.175918,-0.351836,0.351836,-0.175918,345.328,502.721)">
                            <path d="M680.87,337.315L688.696,337.315L685.565,339.663L685.565,343.576L680.87,337.315Z" style="fill-rule:nonzero;stroke:black;stroke-width:1px;"/>
                        </g>
                        <g transform="matrix(0.393365,0,0,-0.393365,74.9714,273.106)">
                            <rect x="503" y="253" width="59" height="13" style="fill:white;"/>
                        </g>
                        <g transform="matrix(0.393365,0,0,-0.393365,75.1681,343.125)">
                            <path d="M327.49,362L386.73,362C387.278,362 387.804,361.895 388.31,361.686C388.816,361.476 389.263,361.178 389.65,360.79C390.038,360.403 390.336,359.957 390.546,359.451C390.755,358.945 390.86,358.418 390.86,357.87L390.86,338.63C390.86,338.082 390.755,337.556 390.546,337.05C390.336,336.544 390.038,336.097 389.65,335.71C389.263,335.322 388.816,335.024 388.31,334.814C387.804,334.605 387.278,334.5 386.73,334.5L327.49,334.5C326.942,334.5 326.415,334.605 325.909,334.814C325.403,335.024 324.957,335.322 324.57,335.71C324.182,336.097 323.884,336.544 323.674,337.05C323.465,337.556 323.36,338.082 323.36,338.63L323.36,357.87C323.36,358.418 323.465,358.945 323.674,359.451C323.884,359.957 324.182,360.403 324.57,360.79C324.957,361.178 325.403,361.476 325.909,361.686C326.415,361.895 326.942,362 327.49,362Z" style="fill:rgb(255,230,204);fill-rule:nonzero;stroke:black;stroke-width:1px;stroke-miterlimit:4;"/>
                        </g>
                        <g transform="matrix(0.393365,0,0,-0.393365,75.1681,276.253)">
                            <path d="M133.99,277L193.23,277C193.778,277 194.304,276.895 194.81,276.686C195.316,276.476 195.763,276.178 196.15,275.79C196.538,275.403 196.836,274.957 197.046,274.451C197.255,273.945 197.36,273.418 197.36,272.87L197.36,253.63C197.36,253.082 197.255,252.556 197.046,252.05C196.836,251.544 196.538,251.097 196.15,250.71C195.763,250.322 195.316,250.024 194.81,249.814C194.304,249.605 193.778,249.5 193.23,249.5L133.99,249.5C133.442,249.5 132.915,249.605 132.409,249.814C131.904,250.024 131.457,250.322 131.07,250.71C130.682,251.097 130.384,251.544 130.174,252.05C129.965,252.556 129.86,253.082 129.86,253.63L129.86,272.87C129.86,273.418 129.965,273.945 130.174,274.45C130.384,274.956 130.682,275.403 131.07,275.79C131.457,276.178 131.904,276.476 132.409,276.686C132.915,276.895 133.442,277 133.99,277Z" style="fill:rgb(186,200,211);fill-rule:nonzero;stroke:rgb(35,68,93);stroke-width:1px;stroke-miterlimit:4;"/>
                        </g>
                        <g transform="matrix(0.393365,0,0,-0.393365,75.1681,403.507)">
                            <path d="M668.13,438.75L742.37,438.75C742.918,438.75 743.444,438.645 743.95,438.436C744.456,438.226 744.903,437.928 745.29,437.54C745.677,437.153 745.976,436.706 746.186,436.201C746.395,435.695 746.5,435.168 746.5,434.62L746.5,415.38C746.5,414.832 746.395,414.306 746.186,413.8C745.976,413.294 745.677,412.847 745.29,412.46C744.903,412.072 744.456,411.774 743.95,411.564C743.444,411.355 742.918,411.25 742.37,411.25L668.13,411.25C667.582,411.25 667.055,411.355 666.549,411.564C666.043,411.774 665.597,412.072 665.21,412.46C664.822,412.847 664.524,413.294 664.314,413.8C664.105,414.306 664,414.832 664,415.38L664,434.62C664,435.168 664.105,435.695 664.314,436.201C664.524,436.706 664.822,437.153 665.21,437.54C665.597,437.928 666.043,438.226 666.549,438.436C667.055,438.645 667.582,438.75 668.13,438.75Z" style="fill:rgb(255,230,204);fill-rule:nonzero;stroke:black;stroke-width:1px;stroke-miterlimit:4;"/>
                        </g>
                        <g transform="matrix(-0.393365,0,0,-0.393365,697.027,403.507)">
                            <path d="M752.87,425L828,425" style="fill:none;fill-rule:nonzero;stroke:black;stroke-width:1px;"/>
                        </g>
                        <g transform="matrix(0.351836,-0.175918,0.175918,0.351836,31.5958,218.932)">
                            <path d="M747.99,423.435L755.816,423.435L752.685,425.783L752.685,429.696L747.99,423.435Z" style="fill-rule:nonzero;stroke:black;stroke-width:1px;"/>
                        </g>
                        <g transform="matrix(0.393365,0,0,-0.393365,74.9714,404.49)">
                            <rect x="768" y="420" width="55" height="13" style="fill:white;"/>
                        </g>
                        <g transform="matrix(0.393365,0,0,-0.393365,75.1681,403.507)">
                            <path d="M832.13,438.75L913.87,438.75C914.418,438.75 914.944,438.645 915.45,438.436C915.956,438.226 916.403,437.928 916.79,437.54C917.178,437.153 917.476,436.706 917.686,436.201C917.895,435.695 918,435.168 918,434.62L918,415.38C918,414.832 917.895,414.306 917.685,413.8C917.476,413.294 917.178,412.847 916.79,412.46C916.403,412.072 915.956,411.774 915.45,411.564C914.944,411.355 914.418,411.25 913.87,411.25L832.13,411.25C831.582,411.25 831.055,411.355 830.549,411.564C830.043,411.774 829.597,412.072 829.21,412.46C828.822,412.847 828.524,413.294 828.314,413.8C828.105,414.306 828,414.832 828,415.38L828,434.62C828,435.168 828.105,435.695 828.314,436.201C828.524,436.706 828.822,437.153 829.21,437.54C829.597,437.928 830.043,438.226 830.549,438.436C831.055,438.645 831.582,438.75 832.13,438.75Z" style="fill:rgb(255,230,204);fill-rule:nonzero;stroke:black;stroke-width:1px;stroke-miterlimit:4;"/>
                        </g>
                        <g transform="matrix(0.393365,0,0,-0.393365,75.1681,299.462)">
                            <path d="M534.63,306.5L608.87,306.5C609.418,306.5 609.944,306.395 610.45,306.186C610.956,305.976 611.403,305.678 611.79,305.29C612.178,304.903 612.476,304.457 612.686,303.95C612.895,303.445 613,302.918 613,302.37L613,283.13C613,282.582 612.895,282.056 612.686,281.55C612.476,281.044 612.178,280.597 611.79,280.21C611.403,279.822 610.956,279.524 610.45,279.314C609.944,279.105 609.418,279 608.87,279L534.63,279C534.082,279 533.555,279.105 533.05,279.314C532.543,279.524 532.097,279.822 531.71,280.21C531.322,280.597 531.024,281.044 530.814,281.55C530.605,282.056 530.5,282.582 530.5,283.13L530.5,302.37C530.5,302.918 530.605,303.445 530.814,303.95C531.024,304.457 531.322,304.903 531.71,305.29C532.097,305.678 532.543,305.976 533.049,306.186C533.555,306.395 534.082,306.5 534.63,306.5Z" style="fill:rgb(255,230,204);fill-rule:nonzero;stroke:black;stroke-width:1px;stroke-miterlimit:4;"/>
                        </g>
                        <g transform="matrix(0.393365,0,0,-0.393365,75.1681,346.666)">
                            <path d="M542.13,366.5L601.37,366.5C601.918,366.5 602.444,366.395 602.95,366.186C603.456,365.976 603.903,365.678 604.29,365.29C604.677,364.903 604.976,364.456 605.186,363.95C605.395,363.445 605.5,362.918 605.5,362.37L605.5,343.13C605.5,342.582 605.395,342.056 605.186,341.55C604.976,341.044 604.677,340.597 604.29,340.21C603.903,339.822 603.456,339.524 602.95,339.314C602.444,339.105 601.918,339 601.37,339L542.13,339C541.582,339 541.055,339.105 540.549,339.314C540.043,339.524 539.597,339.822 539.21,340.21C538.822,340.597 538.524,341.044 538.314,341.55C538.105,342.056 538,342.582 538,343.13L538,362.37C538,362.918 538.105,363.445 538.314,363.95C538.524,364.456 538.822,364.903 539.21,365.29C539.597,365.678 540.043,365.976 540.549,366.186C541.055,366.395 541.582,366.5 542.13,366.5Z" style="fill:rgb(186,200,211);fill-rule:nonzero;stroke:rgb(35,68,93);stroke-width:1px;stroke-miterlimit:4;"/>
                        </g>
                        <g transform="matrix(0,0.393365,-0.393365,0,425.78,-30.0543)">
                            <path d="M558.685,319.565L584.815,319.565" style="fill:none;fill-rule:nonzero;stroke:black;stroke-width:1px;"/>
                        </g>
                        <g transform="matrix(-0.175918,-0.351836,0.351836,-0.175918,283.009,460.666)">
                            <path d="M568.62,332.815L576.446,332.815L573.315,335.163L573.315,339.076L568.62,332.815Z" style="fill-rule:nonzero;stroke:black;stroke-width:1px;"/>
                        </g>
                        <g transform="matrix(0.393365,0,0,-0.393365,74.9714,323.064)">
                            <rect x="557" y="317" width="29" height="12" style="fill:white;"/>
                        </g>
                        <g transform="matrix(0.393365,0,0,-0.393365,75.1681,403.507)">
                            <path d="M1029.13,438.75L1092.87,438.75C1093.42,438.75 1093.94,438.645 1094.45,438.436C1094.96,438.226 1095.4,437.928 1095.79,437.54C1096.18,437.153 1096.48,436.706 1096.68,436.201C1096.89,435.695 1097,435.168 1097,434.62L1097,415.38C1097,414.832 1096.89,414.306 1096.69,413.8C1096.48,413.294 1096.18,412.847 1095.79,412.46C1095.4,412.072 1094.96,411.774 1094.45,411.564C1093.94,411.355 1093.42,411.25 1092.87,411.25L1029.13,411.25C1028.58,411.25 1028.06,411.355 1027.55,411.564C1027.04,411.774 1026.6,412.072 1026.21,412.46C1025.82,412.847 1025.52,413.294 1025.31,413.8C1025.11,414.306 1025,414.832 1025,415.38L1025,434.62C1025,435.168 1025.11,435.695 1025.31,436.201C1025.52,436.706 1025.82,437.153 1026.21,437.54C1026.6,437.928 1027.04,438.226 1027.55,438.436C1028.06,438.645 1028.58,438.75 1029.13,438.75Z" style="fill:rgb(186,200,211);fill-rule:nonzero;stroke:rgb(35,68,93);stroke-width:1px;stroke-miterlimit:4;"/>
                        </g>
                        <g transform="matrix(0.393365,0,0,-0.393365,75.1681,403.507)">
                            <path d="M918,425L1018.63,425" style="fill:none;fill-rule:nonzero;stroke:black;stroke-width:1px;"/>
                        </g>
                        <g transform="matrix(-0.351836,0.175918,-0.175918,-0.351836,910.322,206.354)">
                            <path d="M1017.25,423.435L1025.08,423.435L1021.95,425.783L1021.95,429.696L1017.25,423.435Z" style="fill-rule:nonzero;stroke:black;stroke-width:1px;"/>
                        </g>
                        <g transform="matrix(0.393365,0,0,-0.393365,74.9714,402.523)">
                            <rect x="925" y="418" width="93" height="12" style="fill:white;"/>
                        </g>
                        <g transform="matrix(0.393365,0,0,-0.393365,75.1681,433.009)">
                            <path d="M814.13,476.25L873.37,476.25C873.918,476.25 874.444,476.145 874.95,475.936C875.456,475.726 875.903,475.428 876.29,475.04C876.678,474.653 876.976,474.207 877.185,473.701C877.395,473.195 877.5,472.668 877.5,472.12L877.5,452.88C877.5,452.332 877.395,451.806 877.186,451.3C876.976,450.794 876.678,450.347 876.29,449.96C875.903,449.572 875.456,449.274 874.95,449.064C874.444,448.855 873.918,448.75 873.37,448.75L814.13,448.75C813.582,448.75 813.055,448.855 812.549,449.064C812.043,449.274 811.597,449.572 811.21,449.96C810.822,450.347 810.524,450.794 810.314,451.3C810.105,451.806 810,452.332 810,452.88L810,472.12C810,472.668 810.105,473.195 810.314,473.701C810.524,474.207 810.822,474.653 811.21,475.04C811.597,475.428 812.043,475.726 812.549,475.936C813.055,476.145 813.582,476.25 814.13,476.25Z" style="fill:rgb(186,200,211);fill-rule:nonzero;stroke:rgb(35,68,93);stroke-width:1px;stroke-miterlimit:4;"/>
                        </g>
                        <g transform="matrix(0.393365,0,0,-0.393365,75.1681,423.667)">
                            <path d="M705.25,462.5L705.3,438.75L803.63,438.75" style="fill:none;fill-rule:nonzero;stroke:black;stroke-width:1px;"/>
                        </g>
                        <g transform="matrix(-0.351836,0.175918,-0.175918,-0.351836,756.701,272.121)">
                            <path d="M802.25,460.935L810.076,460.935L806.945,463.283L806.945,467.196L802.25,460.935Z" style="fill-rule:nonzero;stroke:black;stroke-width:1px;"/>
                        </g>
                        <g transform="matrix(0.393365,0,0,-0.393365,74.9714,435.173)">
                            <rect x="736" y="459" width="43" height="13" style="fill:white;"/>
                        </g>
                        <g transform="matrix(0.393365,0,0,-0.393365,75.1681,463.495)">
                            <path d="M814.13,515L873.37,515C873.918,515 874.444,514.895 874.95,514.686C875.456,514.476 875.903,514.178 876.29,513.79C876.678,513.403 876.976,512.957 877.185,512.451C877.395,511.945 877.5,511.418 877.5,510.87L877.5,491.63C877.5,491.082 877.395,490.556 877.186,490.05C876.976,489.544 876.678,489.097 876.29,488.71C875.903,488.322 875.456,488.024 874.95,487.814C874.444,487.605 873.918,487.5 873.37,487.5L814.13,487.5C813.582,487.5 813.055,487.605 812.549,487.814C812.043,488.024 811.597,488.322 811.21,488.71C810.822,489.097 810.524,489.544 810.314,490.05C810.105,490.556 810,491.082 810,491.63L810,510.87C810,511.418 810.105,511.945 810.314,512.451C810.524,512.957 810.822,513.403 811.21,513.79C811.597,514.178 812.043,514.476 812.549,514.686C813.055,514.895 813.582,515 814.13,515Z" style="fill:rgb(186,200,211);fill-rule:nonzero;stroke:rgb(35,68,93);stroke-width:1px;stroke-miterlimit:4;"/>
                        </g>
                        <g transform="matrix(0.393365,0,0,-0.393365,75.1681,494.964)">
                            <path d="M814.13,555L873.37,555C873.918,555 874.444,554.895 874.95,554.686C875.456,554.476 875.903,554.178 876.29,553.79C876.678,553.403 876.976,552.957 877.185,552.451C877.395,551.945 877.5,551.418 877.5,550.87L877.5,531.63C877.5,531.082 877.395,530.556 877.186,530.05C876.976,529.544 876.678,529.097 876.29,528.71C875.903,528.322 875.456,528.024 874.95,527.814C874.444,527.605 873.918,527.5 873.37,527.5L814.13,527.5C813.582,527.5 813.055,527.605 812.549,527.815C812.043,528.024 811.597,528.322 811.21,528.71C810.822,529.097 810.524,529.544 810.314,530.05C810.105,530.556 810,531.082 810,531.63L810,550.87C810,551.418 810.105,551.945 810.314,552.451C810.524,552.956 810.822,553.403 811.21,553.79C811.597,554.178 812.043,554.476 812.549,554.686C813.055,554.895 813.582,555 814.13,555Z" style="fill:rgb(186,200,211);fill-rule:nonzero;stroke:rgb(35,68,93);stroke-width:1px;stroke-miterlimit:4;"/>
                        </g>
                        <g transform="matrix(4.32702,0,0,4.32702,317.113,238.097)">
                        </g>
                        <text x="283.215px" y="238.097px" style="font-family:'ArialMT', 'Arial', sans-serif;font-size:4.327px;">schema:mentions</text>
                        <g transform="matrix(4.32702,0,0,4.32702,296.092,172.405)">
                        </g>
                        <text x="272.773px" y="172.405px" style="font-family:'ArialMT', 'Arial', sans-serif;font-size:4.327px;">nif:sentence</text>
                        <g transform="matrix(3.93365,0,0,3.93365,223.369,207.414)">
                        </g>
                        <text x="207.419px" y="207.414px" style="font-family:'ArialMT', 'Arial', sans-serif;font-size:3.934px;">sioc:Post</text>
                        <g transform="matrix(3.93365,0,0,3.93365,146.908,173.978)">
                        </g>
                        <text x="132.046px" y="173.978px" style="font-family:'ArialMT', 'Arial', sans-serif;font-size:3.934px;">xsd:date</text>
                        <g transform="matrix(3.93365,0,0,3.93365,361.332,237.703)">
                        </g>
                        <text x="343.634px" y="237.703px" style="font-family:'ArialMT', 'Arial', sans-serif;font-size:3.934px;">nif:Phrase</text>
                        <g>
                            <text x="377.18px" y="238.097px" style="font-family:'ArialMT', 'Arial', sans-serif;font-size:3.934px;">nif:anchorOf</text>
                            <g transform="matrix(3.93365,0,0,3.93365,434.093,237.703)">
                            </g>
                            <text x="402.633px" y="237.703px" style="font-family:'ArialMT', 'Arial', sans-serif;font-size:3.934px;">observatory:Entity</text>
                        </g>
                        <g transform="matrix(3.93365,0,0,3.93365,309.887,185.779)">
                        </g>
                        <text x="290.443px" y="185.779px" style="font-family:'ArialMT', 'Arial', sans-serif;font-size:3.934px;">sioc:Forum</text>
                        <g transform="matrix(3.93365,0,0,3.93365,309.145,209.381)">
                        </g>
                        <text x="290.794px" y="209.381px" style="font-family:'ArialMT', 'Arial', sans-serif;font-size:3.934px;">rdfs:Literal</text>
                        <g transform="matrix(3.93365,0,0,3.93365,305.349,197.187)">
                        </g>
                        <text x="294.205px" y="197.187px" style="font-family:'ArialMT', 'Arial', sans-serif;font-size:3.934px;">sioc:id</text>
                        <g transform="matrix(3.93365,0,0,3.93365,504.564,237.703)">
                        </g>
                        <text x="480.088px" y="237.703px" style="font-family:'ArialMT', 'Arial', sans-serif;font-size:3.934px;">rdfs:Resource</text>
                        <g transform="matrix(3.93365,0,0,3.93365,475.591,236.917)">
                        </g>
                        <text x="438.65px" y="236.917px" style="font-family:'ArialMT', 'Arial', sans-serif;font-size:3.934px;">nee:hasMatchedURL</text>
                        <g>
                            <text x="397.789px" y="252.651px" style="font-family:'ArialMT', 'Arial', sans-serif;font-size:3.934px;">rdfs:Literal</text>
                            <g transform="matrix(4.32702,0,0,4.32702,381.234,253.438)">
                            </g>
                            <text x="364.648px" y="253.438px" style="font-family:'ArialMT', 'Arial', sans-serif;font-size:4.327px;">rdf:value</text>
                        </g>
                        <g>
                            <text x="401.286px" y="267.599px" style="font-family:'ArialMT', 'Arial', sans-serif;font-size:3.934px;">xsd:int</text>
                            <g transform="matrix(3.93365,0,0,3.93365,412.65,283.333)">
                            </g>
                            <text x="401.286px" y="283.333px" style="font-family:'ArialMT', 'Arial', sans-serif;font-size:3.934px;">xsd:int</text>
                        </g>
                        <g transform="matrix(0.393365,0,0,-0.393365,75.1681,438.929)">
                            <path d="M705.25,501.3L705.3,438.75L803.63,438.8" style="fill:none;fill-rule:nonzero;stroke:black;stroke-width:1px;"/>
                        </g>
                        <g transform="matrix(-0.351836,0.175918,-0.175918,-0.351836,763.518,300.998)">
                            <path d="M802.25,499.685L810.076,499.685L806.945,502.033L806.945,505.946L802.25,499.685Z" style="fill-rule:nonzero;stroke:black;stroke-width:1px;"/>
                        </g>
                        <g transform="matrix(0.393365,0,0,-0.393365,74.9714,464.675)">
                            <rect x="721" y="497" width="69" height="12" style="fill:white;"/>
                        </g>
                        <g transform="matrix(3.93365,0,0,3.93365,385.709,267.993)">
                        </g>
                        <text x="358.606px" y="267.993px" style="font-family:'ArialMT', 'Arial', sans-serif;font-size:3.934px;">earmark:begins</text>
                        <g transform="matrix(0.393365,0,0,-0.393365,75.1681,454.664)">
                            <path d="M705.25,541.3L705.3,438.75L803.63,438.8" style="fill:none;fill-rule:nonzero;stroke:black;stroke-width:1px;"/>
                        </g>
                        <g transform="matrix(-0.351836,0.175918,-0.175918,-0.351836,770.554,330.806)">
                            <path d="M802.25,539.685L810.076,539.685L806.945,542.033L806.945,545.946L802.25,539.685Z" style="fill-rule:nonzero;stroke:black;stroke-width:1px;"/>
                        </g>
                        <g transform="matrix(0.393365,0,0,-0.393365,74.9714,496.144)">
                            <rect x="728" y="537" width="61" height="12" style="fill:white;"/>
                        </g>
                        <g transform="matrix(0.393365,0,0,-0.393365,75.1681,350.438)">
                            <path d="M724,357.84L752.5,357.79L774.63,357.25" style="fill:none;fill-rule:nonzero;stroke:black;stroke-width:1px;"/>
                        </g>
                        <g transform="matrix(-0.355959,0.16742,-0.16742,-0.355959,716.801,207.279)">
                            <path d="M773.209,356.139L781.033,356.139L777.904,358.492L777.9,362.401L773.209,356.139Z" style="fill-rule:nonzero;stroke:black;stroke-width:1px;"/>
                        </g>
                        <g transform="matrix(0.393365,0,0,-0.393365,74.9714,350.206)">
                            <rect x="733" y="351" width="35" height="13" style="fill:white;"/>
                        </g>
                        <g transform="matrix(0.393365,0,0,-0.393365,75.1681,327.339)">
                            <path d="M704,312.87L704,316.37L747.8,316.37L747.76,343.5" style="fill:none;fill-rule:nonzero;stroke:black;stroke-width:1px;"/>
                        </g>
                        <g transform="matrix(0.176522,0.351534,-0.351534,0.176522,346.684,-126.252)">
                            <path d="M744.628,309.558L752.449,309.558L749.324,311.905L749.317,315.818L744.628,309.558Z" style="fill-rule:nonzero;stroke:black;stroke-width:1px;"/>
                        </g>
                        <g transform="matrix(0.393365,0,0,-0.393365,75.1681,350.206)">
                            <path d="M648.13,371L719.87,371C720.418,371 720.944,370.895 721.45,370.686C721.956,370.476 722.403,370.178 722.79,369.79C723.178,369.403 723.476,368.957 723.686,368.451C723.895,367.945 724,367.418 724,366.87L724,347.63C724,347.082 723.895,346.556 723.685,346.05C723.476,345.544 723.178,345.097 722.79,344.71C722.403,344.322 721.956,344.024 721.45,343.814C720.944,343.605 720.418,343.5 719.87,343.5L648.13,343.5C647.582,343.5 647.055,343.605 646.549,343.814C646.043,344.024 645.597,344.322 645.21,344.71C644.822,345.097 644.524,345.544 644.314,346.05C644.105,346.556 644,347.082 644,347.63L644,366.87C644,367.418 644.105,367.945 644.314,368.451C644.524,368.957 644.822,369.403 645.21,369.79C645.597,370.178 646.043,370.476 646.549,370.686C647.055,370.895 647.582,371 648.13,371Z" style="fill:rgb(255,230,204);fill-rule:nonzero;stroke:black;stroke-width:1px;stroke-miterlimit:4;"/>
                        </g>
                        <g transform="matrix(0,-0.393365,0.393365,0,328.668,547.16)">
                            <path d="M857.19,196.56L866.19,196.56L866.19,238.56L1002.39,238.56L1002.44,374.19" style="fill:none;fill-rule:nonzero;stroke:black;stroke-width:1px;"/>
                        </g>
                        <g transform="matrix(-0.351836,0.175918,-0.175918,-0.351836,872.983,48.1846)">
                            <path d="M1017.25,211.185L1025.08,211.185L1021.95,213.533L1021.95,217.446L1017.25,211.185Z" style="fill-rule:nonzero;stroke:black;stroke-width:1px;"/>
                        </g>
                        <g transform="matrix(0.393365,0,0,-0.393365,74.9714,237.31)">
                            <rect x="920" y="208" width="61" height="12" style="fill:white;"/>
                        </g>
                        <g transform="matrix(3.93365,0,0,3.93365,385.359,283.727)">
                        </g>
                        <text x="361.317px" y="283.727px" style="font-family:'ArialMT', 'Arial', sans-serif;font-size:3.934px;">earmark:ends</text>
                        <g transform="matrix(3.93365,0,0,3.93365,377.072,210.955)">
                        </g>
                        <text x="363.308px" y="210.955px" style="font-family:'ArialMT', 'Arial', sans-serif;font-size:3.934px;">nif:word</text>
                        <g transform="matrix(3.93365,0,0,3.93365,354.945,210.955)">
                        </g>
                        <text x="333.093px" y="210.955px" style="font-family:'ArialMT', 'Arial', sans-serif;font-size:3.934px;">nif:Sentence</text>
                        <g transform="matrix(3.93365,0,0,3.93365,460.885,154.31)">
                        </g>
                        <text x="436.843px" y="154.31px" style="font-family:'ArialMT', 'Arial', sans-serif;font-size:3.934px;">earmark:ends</text>
                        <g transform="matrix(0,-0.393365,0.393365,0,336.536,539.292)">
                            <path d="M837.19,176.56L846.19,176.56L846.19,218.56L1022.39,218.56L1022.44,354.19" style="fill:none;fill-rule:nonzero;stroke:black;stroke-width:1px;"/>
                        </g>
                        <g transform="matrix(-0.351836,0.175918,-0.175918,-0.351836,865.947,18.3766)">
                            <path d="M1017.25,171.185L1025.08,171.185L1021.95,173.533L1021.95,177.446L1017.25,171.185Z" style="fill-rule:nonzero;stroke:black;stroke-width:1px;"/>
                        </g>
                        <g transform="matrix(0.393365,0,0,-0.393365,74.9714,205.447)">
                            <rect x="913" y="167" width="69" height="13" style="fill:white;"/>
                        </g>
                        <g transform="matrix(0.393365,0,0,-0.393365,75.1681,327.635)">
                            <path d="M781,312.87L781,317.12L747.8,317.12L747.76,344.25" style="fill:none;fill-rule:nonzero;stroke:black;stroke-width:1px;"/>
                        </g>
                        <g transform="matrix(0.176522,0.351534,-0.351534,0.176522,346.684,-126.252)">
                            <path d="M744.628,309.558L752.449,309.558L749.324,311.905L749.317,315.818L744.628,309.558Z" style="fill-rule:nonzero;stroke:black;stroke-width:1px;"/>
                        </g>
                        <g transform="matrix(0.393365,0,0,-0.393365,74.9714,325.03)">
                            <rect x="728" y="319" width="43" height="13" style="fill:white;"/>
                        </g>
                        <g transform="matrix(0.393365,0,0,-0.393365,75.1681,350.796)">
                            <path d="M785.13,371.75L836.87,371.75C837.418,371.75 837.944,371.645 838.45,371.436C838.956,371.226 839.403,370.928 839.79,370.54C840.178,370.153 840.476,369.707 840.686,369.201C840.895,368.695 841,368.168 841,367.62L841,348.38C841,347.832 840.895,347.306 840.686,346.8C840.476,346.294 840.178,345.847 839.79,345.46C839.403,345.072 838.956,344.774 838.45,344.564C837.944,344.355 837.418,344.25 836.87,344.25L785.13,344.25C784.582,344.25 784.055,344.355 783.549,344.564C783.043,344.774 782.597,345.072 782.21,345.46C781.822,345.847 781.524,346.294 781.314,346.8C781.105,347.306 781,347.832 781,348.38L781,367.62C781,368.168 781.105,368.695 781.314,369.201C781.524,369.707 781.822,370.153 782.21,370.54C782.597,370.928 783.043,371.226 783.549,371.436C784.055,371.645 784.582,371.75 785.13,371.75Z" style="fill:rgb(255,230,204);fill-rule:nonzero;stroke:black;stroke-width:1px;stroke-miterlimit:4;"/>
                        </g>
                        <g transform="matrix(0.393365,0,0,-0.393365,75.1681,449.353)">
                            <path d="M409,541.8L443,541.75L443,424.75L606.63,424.8" style="fill:none;fill-rule:nonzero;stroke:black;stroke-width:1px;"/>
                        </g>
                        <g transform="matrix(-0.351836,0.175918,-0.175918,-0.351836,623.837,365.834)">
                            <path d="M605.25,540.185L613.076,540.185L609.945,542.533L609.945,546.446L605.25,540.185Z" style="fill-rule:nonzero;stroke:black;stroke-width:1px;"/>
                        </g>
                        <g transform="matrix(0.393365,0,0,-0.393365,74.9714,496.144)">
                            <rect x="484" y="537" width="103" height="12" style="fill:white;"/>
                        </g>
                        <g transform="matrix(3.93365,0,0,3.93365,461.235,138.575)">
                        </g>
                        <text x="434.132px" y="138.575px" style="font-family:'ArialMT', 'Arial', sans-serif;font-size:3.934px;">earmark:begins</text>
                        <g transform="matrix(4.32702,0,0,4.32702,378.087,198.367)">
                        </g>
                        <text x="361.501px" y="198.367px" style="font-family:'ArialMT', 'Arial', sans-serif;font-size:4.327px;">rdf:value</text>
                        <g transform="matrix(3.93365,0,0,3.93365,401.275,211.348)">
                        </g>
                        <text x="386.701px" y="211.348px" style="font-family:'ArialMT', 'Arial', sans-serif;font-size:3.934px;">nif:Word</text>
                        <g transform="matrix(3.93365,0,0,3.93365,305.937,283.727)">
                        </g>
                        <text x="265.286px" y="283.727px" style="font-family:'ArialMT', 'Arial', sans-serif;font-size:3.934px;">observatory:description</text>
                        <g transform="matrix(0.393365,0,0,-0.393365,75.1681,464.498)">
                            <path d="M409,580.3L443,580.25L443,424.75L606.63,424.8" style="fill:none;fill-rule:nonzero;stroke:black;stroke-width:1px;"/>
                        </g>
                        <g transform="matrix(-0.351836,0.175918,-0.175918,-0.351836,630.61,394.525)">
                            <path d="M605.25,578.685L613.076,578.685L609.945,581.033L609.945,584.946L605.25,578.685Z" style="fill-rule:nonzero;stroke:black;stroke-width:1px;"/>
                        </g>
                        <g transform="matrix(0.393365,0,0,-0.393365,74.9714,526.433)">
                            <rect x="490" y="575" width="89" height="13" style="fill:white;"/>
                        </g>
                        <g transform="matrix(3.93365,0,0,3.93365,302.811,299.068)">
                        </g>
                        <text x="267.628px" y="299.068px" style="font-family:'ArialMT', 'Arial', sans-serif;font-size:3.934px;">observatory:follower</text>
                        <g transform="matrix(0.393365,0,0,-0.393365,75.1681,480.823)">
                            <path d="M409,621.8L443,621.75L443,424.75L606.63,424.8" style="fill:none;fill-rule:nonzero;stroke:black;stroke-width:1px;"/>
                        </g>
                        <g transform="matrix(-0.351836,0.175918,-0.175918,-0.351836,637.911,425.45)">
                            <path d="M605.25,620.185L613.076,620.185L609.945,622.533L609.945,626.446L605.25,620.185Z" style="fill-rule:nonzero;stroke:black;stroke-width:1px;"/>
                        </g>
                        <g transform="matrix(0.393365,0,0,-0.393365,74.9714,558.689)">
                            <rect x="488" y="616" width="93" height="13" style="fill:white;"/>
                        </g>
                        <g transform="matrix(3.93365,0,0,3.93365,303.683,315.196)">
                        </g>
                        <text x="266.749px" y="315.196px" style="font-family:'ArialMT', 'Arial', sans-serif;font-size:3.934px;">observatory:following</text>
                        <g transform="matrix(0.393365,0,0,-0.393365,75.1681,495.967)">
                            <path d="M409,660.3L443,660.25L443,424.75L606.63,424.8" style="fill:none;fill-rule:nonzero;stroke:black;stroke-width:1px;"/>
                        </g>
                        <g transform="matrix(-0.351836,0.175918,-0.175918,-0.351836,644.684,454.141)">
                            <path d="M605.25,658.685L613.076,658.685L609.945,661.033L609.945,664.946L605.25,658.685Z" style="fill-rule:nonzero;stroke:black;stroke-width:1px;"/>
                        </g>
                        <g transform="matrix(0.393365,0,0,-0.393365,74.9714,589.372)">
                            <rect x="487" y="655" width="89" height="13" style="fill:white;"/>
                        </g>
                        <g transform="matrix(0.393365,0,0,-0.393365,75.1681,417.294)">
                            <path d="M409,460.3L443,460.25L443,424.75L606.63,424.8" style="fill:none;fill-rule:nonzero;stroke:black;stroke-width:1px;"/>
                        </g>
                        <g transform="matrix(-0.351836,0.175918,-0.175918,-0.351836,609.5,305.1)">
                            <path d="M605.25,458.685L613.076,458.685L609.945,461.033L609.945,464.946L605.25,458.685Z" style="fill-rule:nonzero;stroke:black;stroke-width:1px;"/>
                        </g>
                        <g transform="matrix(0.393365,0,0,-0.393365,74.9714,432.812)">
                            <rect x="474" y="456" width="101" height="13" style="fill:white;"/>
                        </g>
                        <g transform="matrix(0.393365,0,0,-0.393365,75.1681,403.31)">
                            <path d="M357.13,438.5L404.87,438.5C405.418,438.5 405.944,438.395 406.45,438.186C406.956,437.976 407.403,437.678 407.79,437.29C408.178,436.903 408.476,436.457 408.686,435.951C408.895,435.445 409,434.918 409,434.37L409,415.13C409,414.582 408.895,414.056 408.686,413.55C408.476,413.044 408.178,412.597 407.79,412.21C407.403,411.822 406.956,411.524 406.45,411.314C405.944,411.105 405.418,411 404.87,411L357.13,411C356.582,411 356.055,411.105 355.549,411.314C355.043,411.524 354.597,411.822 354.21,412.21C353.822,412.597 353.524,413.044 353.314,413.55C353.105,414.056 353,414.582 353,415.13L353,434.37C353,434.918 353.105,435.445 353.314,435.951C353.524,436.457 353.822,436.903 354.21,437.29C354.597,437.678 355.043,437.976 355.549,438.186C356.055,438.395 356.582,438.5 357.13,438.5Z" style="fill:rgb(255,230,204);fill-rule:nonzero;stroke:black;stroke-width:1px;stroke-miterlimit:4;"/>
                        </g>
                        <g transform="matrix(0.393365,0,0,-0.393365,75.1681,374.646)">
                            <path d="M811,404.88L811,385.03L705.3,385.03L705.27,371.75" style="fill:none;fill-rule:nonzero;stroke:black;stroke-width:1px;"/>
                        </g>
                        <g transform="matrix(-0.174911,-0.352338,0.352338,-0.174911,332.687,548.715)">
                            <path d="M702.139,405.049L709.966,405.049L706.833,407.401L706.835,411.31L702.139,405.049Z" style="fill-rule:nonzero;stroke:black;stroke-width:1px;"/>
                        </g>
                        <g transform="matrix(0.393365,0,0,-0.393365,74.9714,378.135)">
                            <rect x="728" y="387" width="65" height="12" style="fill:white;"/>
                        </g>
                        <g transform="matrix(0.393365,0,0,-0.393365,75.1681,267.993)">
                            <path d="M1029.13,266.5L1088.37,266.5C1088.92,266.5 1089.44,266.395 1089.95,266.186C1090.46,265.976 1090.9,265.678 1091.29,265.29C1091.68,264.903 1091.98,264.456 1092.18,263.951C1092.39,263.445 1092.5,262.918 1092.5,262.37L1092.5,243.13C1092.5,242.582 1092.39,242.056 1092.18,241.55C1091.98,241.044 1091.68,240.597 1091.29,240.21C1090.9,239.822 1090.46,239.524 1089.95,239.314C1089.44,239.105 1088.92,239 1088.37,239L1029.13,239C1028.58,239 1028.06,239.105 1027.55,239.314C1027.04,239.524 1026.6,239.822 1026.21,240.21C1025.82,240.597 1025.52,241.044 1025.31,241.55C1025.11,242.056 1025,242.582 1025,243.13L1025,262.37C1025,262.918 1025.11,263.445 1025.31,263.951C1025.52,264.456 1025.82,264.903 1026.21,265.29C1026.6,265.678 1027.04,265.976 1027.55,266.186C1028.06,266.395 1028.58,266.5 1029.13,266.5Z" style="fill:rgb(186,200,211);fill-rule:nonzero;stroke:rgb(35,68,93);stroke-width:1px;stroke-miterlimit:4;"/>
                        </g>
                        <g transform="matrix(0.393365,0,0,-0.393365,75.1681,299.462)">
                            <path d="M1029.13,306.5L1088.37,306.5C1088.92,306.5 1089.44,306.395 1089.95,306.186C1090.46,305.976 1090.9,305.678 1091.29,305.29C1091.68,304.903 1091.98,304.457 1092.18,303.95C1092.39,303.445 1092.5,302.918 1092.5,302.37L1092.5,283.13C1092.5,282.582 1092.39,282.056 1092.18,281.55C1091.98,281.044 1091.68,280.597 1091.29,280.21C1090.9,279.822 1090.46,279.524 1089.95,279.314C1089.44,279.105 1088.92,279 1088.37,279L1029.13,279C1028.58,279 1028.06,279.105 1027.55,279.314C1027.04,279.524 1026.6,279.822 1026.21,280.21C1025.82,280.597 1025.52,281.044 1025.31,281.55C1025.11,282.056 1025,282.582 1025,283.13L1025,302.37C1025,302.918 1025.11,303.445 1025.31,303.95C1025.52,304.457 1025.82,304.903 1026.21,305.29C1026.6,305.678 1027.04,305.976 1027.55,306.186C1028.06,306.395 1028.58,306.5 1029.13,306.5Z" style="fill:rgb(186,200,211);fill-rule:nonzero;stroke:rgb(35,68,93);stroke-width:1px;stroke-miterlimit:4;"/>
                        </g>
                        <g transform="matrix(0.393365,0,0,-0.393365,75.1681,330.931)">
                            <path d="M1029.13,346.5L1088.37,346.5C1088.92,346.5 1089.44,346.395 1089.95,346.186C1090.46,345.976 1090.9,345.678 1091.29,345.29C1091.68,344.903 1091.98,344.457 1092.18,343.951C1092.39,343.445 1092.5,342.918 1092.5,342.37L1092.5,323.13C1092.5,322.582 1092.39,322.056 1092.18,321.55C1091.98,321.044 1091.68,320.597 1091.29,320.21C1090.9,319.822 1090.46,319.524 1089.95,319.314C1089.44,319.105 1088.92,319 1088.37,319L1029.13,319C1028.58,319 1028.06,319.105 1027.55,319.314C1027.04,319.524 1026.6,319.822 1026.21,320.21C1025.82,320.597 1025.52,321.044 1025.31,321.55C1025.11,322.056 1025,322.582 1025,323.13L1025,342.37C1025,342.918 1025.11,343.445 1025.31,343.951C1025.52,344.457 1025.82,344.903 1026.21,345.29C1026.6,345.678 1027.04,345.976 1027.55,346.186C1028.06,346.395 1028.58,346.5 1029.13,346.5Z" style="fill:rgb(186,200,211);fill-rule:nonzero;stroke:rgb(35,68,93);stroke-width:1px;stroke-miterlimit:4;"/>
                        </g>
                        <g transform="matrix(0.393365,0,0,-0.393365,75.1681,360.433)">
                            <path d="M1029.13,384L1088.37,384C1088.92,384 1089.44,383.895 1089.95,383.686C1090.46,383.476 1090.9,383.178 1091.29,382.79C1091.68,382.403 1091.98,381.957 1092.18,381.451C1092.39,380.945 1092.5,380.418 1092.5,379.87L1092.5,360.63C1092.5,360.082 1092.39,359.556 1092.18,359.05C1091.98,358.544 1091.68,358.097 1091.29,357.71C1090.9,357.322 1090.46,357.024 1089.95,356.814C1089.44,356.605 1088.92,356.5 1088.37,356.5L1029.13,356.5C1028.58,356.5 1028.06,356.605 1027.55,356.814C1027.04,357.024 1026.6,357.322 1026.21,357.71C1025.82,358.097 1025.52,358.544 1025.31,359.05C1025.11,359.556 1025,360.082 1025,360.63L1025,379.87C1025,380.418 1025.11,380.945 1025.31,381.451C1025.52,381.957 1025.82,382.403 1026.21,382.79C1026.6,383.178 1027.04,383.476 1027.55,383.686C1028.06,383.895 1028.58,384 1029.13,384Z" style="fill:rgb(186,200,211);fill-rule:nonzero;stroke:rgb(35,68,93);stroke-width:1px;stroke-miterlimit:4;"/>
                        </g>
                        <g transform="matrix(0.393365,0,0,-0.393365,75.1681,236.523)">
                            <path d="M1029.13,226.5L1088.37,226.5C1088.92,226.5 1089.44,226.395 1089.95,226.186C1090.46,225.976 1090.9,225.678 1091.29,225.29C1091.68,224.903 1091.98,224.457 1092.18,223.951C1092.39,223.445 1092.5,222.918 1092.5,222.37L1092.5,203.13C1092.5,202.582 1092.39,202.056 1092.18,201.55C1091.98,201.044 1091.68,200.597 1091.29,200.21C1090.9,199.822 1090.46,199.524 1089.95,199.314C1089.44,199.105 1088.92,199 1088.37,199L1029.13,199C1028.58,199 1028.06,199.105 1027.55,199.314C1027.04,199.524 1026.6,199.822 1026.21,200.21C1025.82,200.597 1025.52,201.044 1025.31,201.55C1025.11,202.056 1025,202.582 1025,203.13L1025,222.37C1025,222.918 1025.11,223.445 1025.31,223.951C1025.52,224.457 1025.82,224.903 1026.21,225.29C1026.6,225.678 1027.04,225.976 1027.55,226.186C1028.06,226.395 1028.58,226.5 1029.13,226.5Z" style="fill:rgb(186,200,211);fill-rule:nonzero;stroke:rgb(35,68,93);stroke-width:1px;stroke-miterlimit:4;"/>
                        </g>
                        <g transform="matrix(0.393365,0,0,-0.393365,75.1681,205.054)">
                            <path d="M1029.13,186.5L1088.37,186.5C1088.92,186.5 1089.44,186.395 1089.95,186.186C1090.46,185.976 1090.9,185.678 1091.29,185.29C1091.68,184.903 1091.98,184.456 1092.18,183.95C1092.39,183.445 1092.5,182.918 1092.5,182.37L1092.5,163.13C1092.5,162.582 1092.39,162.056 1092.18,161.55C1091.98,161.044 1091.68,160.597 1091.29,160.21C1090.9,159.822 1090.46,159.524 1089.95,159.314C1089.44,159.105 1088.92,159 1088.37,159L1029.13,159C1028.58,159 1028.06,159.105 1027.55,159.314C1027.04,159.524 1026.6,159.822 1026.21,160.21C1025.82,160.597 1025.52,161.044 1025.31,161.55C1025.11,162.056 1025,162.582 1025,163.13L1025,182.37C1025,182.918 1025.11,183.445 1025.31,183.95C1025.52,184.456 1025.82,184.903 1026.21,185.29C1026.6,185.678 1027.04,185.976 1027.55,186.186C1028.06,186.395 1028.58,186.5 1029.13,186.5Z" style="fill:rgb(186,200,211);fill-rule:nonzero;stroke:rgb(35,68,93);stroke-width:1px;stroke-miterlimit:4;"/>
                        </g>
                        <g transform="matrix(0.393365,0,0,-0.393365,75.1681,305.559)">
                            <path d="M841,252L883,252L883,349L983,349L1018.63,348.36" style="fill:none;fill-rule:nonzero;stroke:black;stroke-width:1px;"/>
                        </g>
                        <g transform="matrix(-0.354995,0.169453,-0.169453,-0.354995,881.562,85.2845)">
                            <path d="M1017.22,250.972L1025.04,250.972L1021.92,253.314L1021.91,257.224L1017.22,250.972Z" style="fill-rule:nonzero;stroke:black;stroke-width:1px;"/>
                        </g>
                        <g transform="matrix(0.393365,0,0,-0.393365,74.9714,267.206)">
                            <rect x="891" y="246" width="123" height="12" style="fill:white;"/>
                        </g>
                        <g transform="matrix(0,-0.393365,0.393365,0,313.376,562.452)">
                            <path d="M898.315,235.435L905.065,235.435L905.065,277.435L961.265,277.435L961.315,413.065" style="fill:none;fill-rule:nonzero;stroke:black;stroke-width:1px;"/>
                        </g>
                        <g transform="matrix(-0.351836,0.175918,-0.175918,-0.351836,887.057,107.801)">
                            <path d="M1017.25,291.185L1025.08,291.185L1021.95,293.533L1021.95,297.446L1017.25,291.185Z" style="fill-rule:nonzero;stroke:black;stroke-width:1px;"/>
                        </g>
                        <g transform="matrix(0.393365,0,0,-0.393365,74.9714,300.248)">
                            <rect x="923" y="288" width="45" height="12" style="fill:white;"/>
                        </g>
                        <g transform="matrix(0,-0.393365,0.393365,0,305.066,570.762)">
                            <path d="M917.19,256.56L926.19,256.56L926.19,298.56L942.39,298.56L942.44,434.19" style="fill:none;fill-rule:nonzero;stroke:black;stroke-width:1px;"/>
                        </g>
                        <g transform="matrix(-0.351836,0.175918,-0.175918,-0.351836,894.094,137.609)">
                            <path d="M1017.25,331.185L1025.08,331.185L1021.95,333.533L1021.95,337.446L1017.25,331.185Z" style="fill-rule:nonzero;stroke:black;stroke-width:1px;"/>
                        </g>
                        <g transform="matrix(0.393365,0,0,-0.393365,74.9714,331.718)">
                            <rect x="919" y="328" width="43" height="12" style="fill:white;"/>
                        </g>
                        <g transform="matrix(0.393365,0,0,-0.393365,75.1681,352.094)">
                            <path d="M841,370.3L883,370.3L883,349L1018.63,349.05" style="fill:none;fill-rule:nonzero;stroke:black;stroke-width:1px;"/>
                        </g>
                        <g transform="matrix(-0.351836,0.175918,-0.175918,-0.351836,900.691,165.554)">
                            <path d="M1017.25,368.685L1025.08,368.685L1021.95,371.033L1021.95,374.946L1017.25,368.685Z" style="fill-rule:nonzero;stroke:black;stroke-width:1px;"/>
                        </g>
                        <g transform="matrix(0.393365,0,0,-0.393365,74.9714,359.253)">
                            <rect x="929" y="363" width="39" height="12" style="fill:white;"/>
                        </g>
                        <g transform="matrix(0.393365,0,0,-0.393365,75.1681,310.932)">
                            <path d="M791.32,270L791.3,344.66L830.7,344.66L830.68,275.79" style="fill:none;fill-rule:nonzero;stroke:black;stroke-width:1px;"/>
                        </g>
                        <g transform="matrix(-0.175918,-0.351836,0.351836,-0.175918,428.218,555.319)">
                            <path d="M827.549,339.055L835.376,339.055L832.245,341.403L832.245,345.316L827.549,339.055Z" style="fill-rule:nonzero;stroke:black;stroke-width:1px;"/>
                        </g>
                        <g transform="matrix(0.393365,0,0,-0.393365,74.9714,274.286)">
                            <rect x="730" y="255" width="147" height="12" style="fill:white;"/>
                        </g>
                        <g transform="matrix(0.393365,0,0,-0.393365,75.1681,245.177)">
                            <path d="M144.13,237.5L193.23,237.5C193.778,237.5 194.304,237.395 194.81,237.186C195.316,236.976 195.763,236.678 196.15,236.29C196.538,235.903 196.836,235.457 197.046,234.951C197.255,234.445 197.36,233.918 197.36,233.37L197.36,214.13C197.36,213.582 197.255,213.056 197.046,212.55C196.836,212.044 196.538,211.597 196.15,211.21C195.763,210.822 195.316,210.524 194.81,210.314C194.304,210.105 193.778,210 193.23,210L144.13,210C143.582,210 143.055,210.105 142.55,210.314C142.044,210.524 141.597,210.822 141.21,211.21C140.822,211.597 140.524,212.044 140.314,212.55C140.105,213.056 140,213.582 140,214.13L140,233.37C140,233.918 140.105,234.445 140.314,234.951C140.524,235.457 140.822,235.903 141.21,236.29C141.597,236.678 142.044,236.976 142.55,237.186C143.055,237.395 143.582,237.5 144.13,237.5Z" style="fill:rgb(186,200,211);fill-rule:nonzero;stroke:rgb(35,68,93);stroke-width:1px;stroke-miterlimit:4;"/>
                        </g>
                        <g transform="matrix(0.393365,0,0,-0.393365,75.1681,463.495)">
                            <path d="M617.13,515L676.37,515C676.918,515 677.444,514.895 677.95,514.686C678.456,514.476 678.903,514.178 679.29,513.79C679.677,513.403 679.976,512.957 680.186,512.451C680.395,511.945 680.5,511.418 680.5,510.87L680.5,491.63C680.5,491.082 680.395,490.556 680.186,490.05C679.976,489.544 679.677,489.097 679.29,488.71C678.903,488.322 678.456,488.024 677.95,487.814C677.444,487.605 676.918,487.5 676.37,487.5L617.13,487.5C616.582,487.5 616.055,487.605 615.549,487.814C615.044,488.024 614.597,488.322 614.21,488.71C613.822,489.097 613.524,489.544 613.314,490.05C613.105,490.556 613,491.082 613,491.63L613,510.87C613,511.418 613.105,511.945 613.314,512.451C613.524,512.957 613.822,513.403 614.21,513.79C614.597,514.178 615.044,514.476 615.55,514.686C616.055,514.895 616.582,515 617.13,515Z" style="fill:rgb(186,200,211);fill-rule:nonzero;stroke:rgb(35,68,93);stroke-width:1px;stroke-miterlimit:4;"/>
                        </g>
                        <g transform="matrix(0.393365,0,0,-0.393365,75.1681,495.358)">
                            <path d="M617.13,555.5L676.37,555.5C676.918,555.5 677.444,555.395 677.95,555.186C678.456,554.976 678.903,554.678 679.29,554.29C679.677,553.903 679.976,553.457 680.186,552.951C680.395,552.445 680.5,551.918 680.5,551.37L680.5,532.13C680.5,531.582 680.395,531.056 680.186,530.55C679.976,530.044 679.677,529.597 679.29,529.21C678.903,528.822 678.456,528.524 677.95,528.314C677.444,528.105 676.918,528 676.37,528L617.13,528C616.582,528 616.055,528.105 615.549,528.314C615.044,528.524 614.597,528.822 614.21,529.21C613.822,529.597 613.524,530.044 613.314,530.55C613.105,531.056 613,531.582 613,532.13L613,551.37C613,551.918 613.105,552.445 613.314,552.951C613.524,553.457 613.822,553.903 614.21,554.29C614.597,554.678 615.044,554.976 615.55,555.186C616.055,555.395 616.582,555.5 617.13,555.5Z" style="fill:rgb(186,200,211);fill-rule:nonzero;stroke:rgb(35,68,93);stroke-width:1px;stroke-miterlimit:4;"/>
                        </g>
                        <g transform="matrix(3.93365,0,0,3.93365,301.629,330.538)">
                        </g>
                        <text x="266.442px" y="330.538px" style="font-family:'ArialMT', 'Arial', sans-serif;font-size:3.934px;">observatory:location</text>
                        <g transform="matrix(3.93365,0,0,3.93365,294.614,252.258)">
                        </g>
                        <g transform="matrix(3.93365,0,0,3.93365,295.707,252.258)">
                        </g>
                        <g transform="matrix(3.93365,0,0,3.93365,300.955,252.258)">
                        </g>
                        <text x="261.617px" y="252.258px" style="font-family:'ArialMT', 'Arial', sans-serif;font-size:3.934px;">observatory:is_veried</text>
                        <g transform="matrix(3.93365,0,0,3.93365,233.032,237.703)">
                        </g>
                        <text x="216.644px" y="237.703px" style="font-family:'ArialMT', 'Arial', sans-serif;font-size:3.934px;">sioc:User</text>
                        <g transform="matrix(3.93365,0,0,3.93365,386.791,224.722)">
                        </g>
                        <text x="361.446px" y="224.722px" style="font-family:'ArialMT', 'Arial', sans-serif;font-size:3.934px;">nif:superString</text>
                        <g transform="matrix(3.93365,0,0,3.93365,497.223,170.045)">
                        </g>
                        <text x="485.86px" y="170.045px" style="font-family:'ArialMT', 'Arial', sans-serif;font-size:3.934px;">xsd:int</text>
                        <g>
                            <text x="482.362px" y="185.779px" style="font-family:'ArialMT', 'Arial', sans-serif;font-size:3.934px;">rdfs:Literal</text>
                            <text x="482.362px" y="201.513px" style="font-family:'ArialMT', 'Arial', sans-serif;font-size:3.934px;">rdfs:Literal</text>
                            <g transform="matrix(3.93365,0,0,3.93365,500.714,216.066)">
                            </g>
                            <text x="482.362px" y="216.066px" style="font-family:'ArialMT', 'Arial', sans-serif;font-size:3.934px;">rdfs:Literal</text>
                        </g>
                        <g transform="matrix(3.93365,0,0,3.93365,497.223,154.31)">
                        </g>
                        <text x="485.86px" y="154.31px" style="font-family:'ArialMT', 'Arial', sans-serif;font-size:3.934px;">xsd:int</text>
                        <g transform="matrix(3.93365,0,0,3.93365,497.223,138.575)">
                        </g>
                        <text x="485.86px" y="138.575px" style="font-family:'ArialMT', 'Arial', sans-serif;font-size:3.934px;">xsd:int</text>
                        <g transform="matrix(3.93365,0,0,3.93365,473.701,169.258)">
                        </g>
                        <text x="425.601px" y="169.258px" style="font-family:'ArialMT', 'Arial', sans-serif;font-size:3.934px;">observatory:hasT<tspan x="455.55px 457.738px " y="169.258px 169.258px ">ok</tspan>enIndex</text>
                        <g transform="matrix(3.93365,0,0,3.93365,455.862,185.779)">
                        </g>
                        <text x="437.931px" y="185.779px" style="font-family:'ArialMT', 'Arial', sans-serif;font-size:3.934px;">nif:posT<tspan x="451.487px 453.674px " y="185.779px 185.779px ">ag</tspan></text>
                        <g transform="matrix(3.93365,0,0,3.93365,453.447,201.514)">
                        </g>
                        <text x="436.406px" y="201.514px" style="font-family:'ArialMT', 'Arial', sans-serif;font-size:3.934px;">nif:lemma</text>
                        <g transform="matrix(3.93365,0,0,3.93365,455.615,215.282)">
                        </g>
                        <text x="440.537px" y="215.282px" style="font-family:'ArialMT', 'Arial', sans-serif;font-size:3.934px;">rdf:value</text>
                        <g transform="matrix(3.93365,0,0,3.93365,420.104,172.798)">
                        </g>
                        <text x="361.956px" y="172.798px" style="font-family:'ArialMT', 'Arial', sans-serif;font-size:3.934px;">observatory:dependency_relation</text>
                        <g transform="matrix(3.93365,0,0,3.93365,150.422,158.637)">
                        </g>
                        <text x="132.071px" y="158.637px" style="font-family:'ArialMT', 'Arial', sans-serif;font-size:3.934px;">rdfs:Literal</text>
                        <g>
                            <text x="320.296px" y="267.599px" style="font-family:'ArialMT', 'Arial', sans-serif;font-size:3.934px;">rdfs:Literal</text>
                            <g transform="matrix(3.93365,0,0,3.93365,338.647,283.723)">
                            </g>
                            <text x="320.296px" y="283.723px" style="font-family:'ArialMT', 'Arial', sans-serif;font-size:3.934px;">rdfs:Literal</text>
                        </g>
                        <g transform="matrix(0.393365,0,0,-0.393365,75.1681,433.422)">
                            <path d="M409,501.3L443,501.25L443,424.75L606.63,424.8" style="fill:none;fill-rule:nonzero;stroke:black;stroke-width:1px;"/>
                        </g>
                        <g transform="matrix(-0.351836,0.175918,-0.175918,-0.351836,616.713,335.654)">
                            <path d="M605.25,499.685L613.076,499.685L609.945,502.033L609.945,505.946L605.25,499.685Z" style="fill-rule:nonzero;stroke:black;stroke-width:1px;"/>
                        </g>
                        <g transform="matrix(0.393365,0,0,-0.393365,74.9714,463.888)">
                            <rect x="509" y="496" width="41" height="12" style="fill:white;"/>
                        </g>
                        <g transform="matrix(0.393365,0,0,-0.393365,75.1681,525.647)">
                            <path d="M617.13,594L708.87,594C709.418,594 709.944,593.895 710.45,593.686C710.956,593.476 711.403,593.178 711.79,592.79C712.178,592.403 712.476,591.957 712.686,591.451C712.895,590.945 713,590.418 713,589.87L713,570.63C713,570.082 712.895,569.556 712.686,569.05C712.476,568.544 712.178,568.097 711.79,567.71C711.403,567.322 710.956,567.024 710.45,566.814C709.944,566.605 709.418,566.5 708.87,566.5L617.13,566.5C616.582,566.5 616.055,566.605 615.549,566.814C615.044,567.024 614.597,567.322 614.21,567.71C613.822,568.097 613.524,568.544 613.314,569.05C613.105,569.556 613,570.082 613,570.63L613,589.87C613,590.418 613.105,590.945 613.314,591.451C613.524,591.957 613.822,592.403 614.21,592.79C614.597,593.178 615.044,593.476 615.55,593.686C616.055,593.895 616.582,594 617.13,594Z" style="fill:rgb(186,200,211);fill-rule:nonzero;stroke:rgb(35,68,93);stroke-width:1px;stroke-miterlimit:4;"/>
                        </g>
                        <g transform="matrix(0.393365,0,0,-0.393365,75.1681,558.296)">
                            <path d="M617.13,635.5L708.87,635.5C709.418,635.5 709.944,635.395 710.45,635.186C710.956,634.976 711.403,634.678 711.79,634.29C712.178,633.903 712.476,633.457 712.686,632.951C712.895,632.445 713,631.918 713,631.37L713,612.13C713,611.582 712.895,611.056 712.686,610.55C712.476,610.044 712.178,609.597 711.79,609.21C711.403,608.822 710.956,608.524 710.45,608.314C709.944,608.105 709.418,608 708.87,608L617.13,608C616.582,608 616.055,608.105 615.549,608.315C615.044,608.524 614.597,608.822 614.21,609.21C613.822,609.597 613.524,610.044 613.314,610.55C613.105,611.056 613,611.582 613,612.13L613,631.37C613,631.918 613.105,632.445 613.314,632.951C613.524,633.456 613.822,633.903 614.21,634.29C614.597,634.678 615.044,634.976 615.55,635.186C616.055,635.395 616.582,635.5 617.13,635.5Z" style="fill:rgb(186,200,211);fill-rule:nonzero;stroke:rgb(35,68,93);stroke-width:1px;stroke-miterlimit:4;"/>
                        </g>
                        <g transform="matrix(0.393365,0,0,-0.393365,75.1681,588.585)">
                            <path d="M617.13,674L676.37,674C676.918,674 677.444,673.895 677.95,673.686C678.456,673.476 678.903,673.178 679.29,672.79C679.677,672.403 679.976,671.957 680.186,671.451C680.395,670.945 680.5,670.418 680.5,669.87L680.5,650.63C680.5,650.082 680.395,649.556 680.186,649.05C679.976,648.544 679.677,648.097 679.29,647.71C678.903,647.322 678.456,647.024 677.95,646.815C677.444,646.605 676.918,646.5 676.37,646.5L617.13,646.5C616.582,646.5 616.055,646.605 615.549,646.815C615.044,647.024 614.597,647.322 614.21,647.71C613.822,648.097 613.524,648.544 613.314,649.05C613.105,649.556 613,650.082 613,650.63L613,669.87C613,670.418 613.105,670.945 613.314,671.451C613.524,671.957 613.822,672.403 614.21,672.79C614.597,673.178 615.044,673.476 615.55,673.686C616.055,673.895 616.582,674 617.13,674Z" style="fill:rgb(186,200,211);fill-rule:nonzero;stroke:rgb(35,68,93);stroke-width:1px;stroke-miterlimit:4;"/>
                        </g>
                        <g transform="matrix(-0.00142898,0.393363,-0.393363,-0.00142898,307.245,104.042)">
                            <path d="M241.011,404.496L243.761,404.496L243.728,395.496L261.028,395.433L260.529,272.044" style="fill:none;fill-rule:nonzero;stroke:black;stroke-width:1px;"/>
                        </g>
                        <g transform="matrix(-0.351836,0.175918,-0.175918,-0.351836,373.957,272.591)">
                            <path d="M315.609,346.685L323.436,346.685L320.305,349.033L320.305,352.946L315.609,346.685Z" style="fill-rule:nonzero;stroke:black;stroke-width:1px;"/>
                        </g>
                        <g transform="matrix(0.393365,0,0,-0.393365,75.1681,318.591)">
                            <path d="M139.3,319.63L139.3,328.13L340.2,328.13L340.23,306" style="fill:none;fill-rule:nonzero;stroke:black;stroke-width:1px;"/>
                        </g>
                        <g transform="matrix(-0.17612,-0.351736,0.351736,-0.17612,152.893,376.679)">
                            <path d="M337.1,328.313L344.918,328.313L341.795,330.664L341.793,334.577L337.1,328.313Z" style="fill-rule:nonzero;stroke:black;stroke-width:1px;"/>
                        </g>
                        <g transform="matrix(0.393365,0,0,-0.393365,74.9714,310.083)">
                            <rect x="202" y="300" width="97" height="13" style="fill:white;"/>
                        </g>
                        <g transform="matrix(0.393365,0,0,-0.393365,75.1681,327.391)">
                            <path d="M98.11,342L180.48,342C181.028,342 181.554,341.895 182.06,341.686C182.566,341.476 183.013,341.178 183.4,340.79C183.788,340.403 184.086,339.957 184.296,339.45C184.505,338.945 184.61,338.418 184.61,337.87L184.61,318.63C184.61,318.082 184.505,317.556 184.296,317.05C184.086,316.544 183.788,316.097 183.4,315.71C183.013,315.322 182.566,315.024 182.06,314.814C181.554,314.605 181.028,314.5 180.48,314.5L98.11,314.5C97.562,314.5 97.035,314.605 96.53,314.814C96.024,315.024 95.577,315.322 95.19,315.71C94.802,316.097 94.504,316.544 94.294,317.05C94.085,317.556 93.98,318.082 93.98,318.63L93.98,337.87C93.98,338.418 94.085,338.945 94.294,339.45C94.504,339.957 94.802,340.403 95.19,340.79C95.577,341.178 96.024,341.476 96.53,341.686C97.035,341.895 97.562,342 98.11,342Z" style="fill:rgb(255,230,204);fill-rule:nonzero;stroke:black;stroke-width:1px;stroke-miterlimit:4;"/>
                        </g>
                        <g transform="matrix(-0.00142898,0.393363,-0.393363,-0.00142898,315.643,112.471)">
                            <path d="M259.66,425.778L262.41,425.778L262.378,416.778L239.678,416.861L239.18,293.472" style="fill:none;fill-rule:nonzero;stroke:black;stroke-width:1px;"/>
                        </g>
                        <g transform="matrix(-0.351836,0.175918,-0.175918,-0.351836,373.957,272.591)">
                            <path d="M315.609,346.685L323.436,346.685L320.305,349.033L320.305,352.946L315.609,346.685Z" style="fill-rule:nonzero;stroke:black;stroke-width:1px;"/>
                        </g>
                        <g transform="matrix(0.393365,0,0,-0.393365,74.9714,343.912)">
                            <rect x="222" y="343" width="71" height="13" style="fill:white;"/>
                        </g>
                        <g transform="matrix(0.393365,0,0,-0.393365,75.1681,369.823)">
                            <path d="M139.3,382.37L139.3,368.37L340.2,368.37L340.23,396" style="fill:none;fill-rule:nonzero;stroke:black;stroke-width:1px;"/>
                        </g>
                        <g transform="matrix(0.175918,0.351836,-0.351836,0.175918,278.14,29.1615)">
                            <path d="M337.1,365.055L344.926,365.055L341.795,367.403L341.786,371.311L337.1,365.055Z" style="fill-rule:nonzero;stroke:black;stroke-width:1px;"/>
                        </g>
                        <g transform="matrix(0.393365,0,0,-0.393365,74.9714,381.675)">
                            <rect x="188" y="391" width="91" height="13" style="fill:white;"/>
                        </g>
                        <g transform="matrix(0.393365,0,0,-0.393365,75.1681,358.86)">
                            <path d="M98.11,382L180.48,382C181.028,382 181.554,381.895 182.06,381.686C182.566,381.476 183.013,381.178 183.4,380.79C183.788,380.403 184.086,379.957 184.296,379.451C184.505,378.945 184.61,378.418 184.61,377.87L184.61,358.63C184.61,358.082 184.505,357.556 184.296,357.05C184.086,356.544 183.788,356.097 183.4,355.71C183.013,355.322 182.566,355.024 182.06,354.814C181.554,354.605 181.028,354.5 180.48,354.5L98.11,354.5C97.562,354.5 97.035,354.605 96.53,354.814C96.024,355.024 95.577,355.322 95.19,355.71C94.802,356.097 94.504,356.544 94.294,357.05C94.085,357.556 93.98,358.082 93.98,358.63L93.98,377.87C93.98,378.418 94.085,378.945 94.294,379.451C94.504,379.957 94.802,380.403 95.19,380.79C95.577,381.178 96.024,381.476 96.53,381.686C97.035,381.895 97.562,382 98.11,382Z" style="fill:rgb(255,230,204);fill-rule:nonzero;stroke:black;stroke-width:1px;stroke-miterlimit:4;"/>
                        </g>
                        <g transform="matrix(0.393365,0,0,-0.393365,75.1681,514.337)">
                            <rect x="83" y="474" width="341" height="183.75" style="fill:white;stroke:black;stroke-width:1px;stroke-miterlimit:4;"/>
                        </g>
                        <g transform="matrix(0.393365,0,0,-0.393365,75.1681,186.369)">
                            <path d="M423,159L547,159C547.398,159 547.78,158.924 548.148,158.772C548.516,158.619 548.84,158.403 549.121,158.121C549.403,157.84 549.619,157.516 549.772,157.148C549.924,156.781 550,156.398 550,156L550,142C550,141.602 549.924,141.219 549.772,140.852C549.619,140.484 549.403,140.16 549.121,139.879C548.84,139.597 548.516,139.381 548.148,139.228C547.78,139.076 547.398,139 547,139L423,139C422.602,139 422.219,139.076 421.852,139.228C421.484,139.381 421.16,139.597 420.879,139.879C420.597,140.16 420.381,140.484 420.228,140.852C420.076,141.219 420,141.602 420,142L420,156C420,156.398 420.076,156.781 420.228,157.148C420.381,157.516 420.597,157.84 420.879,158.121C421.16,158.403 421.484,158.619 421.852,158.772C422.219,158.924 422.602,159 423,159Z" style="fill:rgb(218,232,252);fill-rule:nonzero;stroke:rgb(108,142,191);stroke-width:1px;stroke-miterlimit:4;"/>
                        </g>
                        <g transform="matrix(0.393365,0,0,-0.393365,75.1681,217.838)">
                            <path d="M423,199L547,199C547.398,199 547.78,198.924 548.148,198.772C548.516,198.619 548.84,198.403 549.121,198.121C549.403,197.84 549.619,197.516 549.772,197.148C549.924,196.781 550,196.398 550,196L550,182C550,181.602 549.924,181.22 549.772,180.852C549.619,180.484 549.403,180.16 549.121,179.879C548.84,179.597 548.516,179.381 548.148,179.228C547.78,179.076 547.398,179 547,179L423,179C422.602,179 422.219,179.076 421.852,179.228C421.484,179.381 421.16,179.597 420.879,179.879C420.597,180.16 420.381,180.484 420.228,180.852C420.076,181.22 420,181.602 420,182L420,196C420,196.398 420.076,196.781 420.228,197.148C420.381,197.516 420.597,197.84 420.879,198.121C421.16,198.403 421.484,198.619 421.852,198.772C422.219,198.924 422.602,199 423,199Z" style="fill:rgb(218,232,252);fill-rule:nonzero;stroke:rgb(108,142,191);stroke-width:1px;stroke-miterlimit:4;"/>
                        </g>
                        <g transform="matrix(0.393365,0,0,-0.393365,75.1681,202.104)">
                            <path d="M715.75,179L849.25,179C849.648,179 850.03,178.924 850.398,178.772C850.765,178.619 851.09,178.403 851.371,178.121C851.653,177.84 851.869,177.516 852.021,177.148C852.174,176.781 852.25,176.398 852.25,176L852.25,162C852.25,161.602 852.174,161.22 852.021,160.852C851.869,160.484 851.653,160.16 851.371,159.879C851.09,159.597 850.765,159.381 850.398,159.228C850.03,159.076 849.648,159 849.25,159L715.75,159C715.352,159 714.969,159.076 714.602,159.228C714.234,159.381 713.91,159.597 713.629,159.879C713.347,160.16 713.131,160.484 712.978,160.852C712.826,161.22 712.75,161.602 712.75,162L712.75,176C712.75,176.398 712.826,176.781 712.978,177.148C713.131,177.516 713.347,177.84 713.629,178.121C713.91,178.403 714.234,178.619 714.602,178.772C714.969,178.924 715.352,179 715.75,179Z" style="fill:rgb(218,232,252);fill-rule:nonzero;stroke:rgb(108,142,191);stroke-width:1px;stroke-miterlimit:4;"/>
                        </g>
                        <g transform="matrix(0.393365,0,0,-0.393365,75.1681,245.571)">
                            <path d="M594,224.25L707.63,224.25" style="fill:none;fill-rule:nonzero;stroke:black;stroke-width:1px;"/>
                        </g>
                        <g transform="matrix(-0.351836,0.175918,-0.175918,-0.351836,643.249,111.465)">
                            <path d="M706.25,222.685L714.076,222.685L710.945,225.033L710.945,228.946L706.25,222.685Z" style="fill-rule:nonzero;stroke:black;stroke-width:1px;"/>
                        </g>
                        <g transform="matrix(0.393365,0,0,-0.393365,74.9714,246.357)">
                            <rect x="602" y="219" width="93" height="13" style="fill:white;"/>
                        </g>
                        <g transform="matrix(0.393365,0,0,-0.393365,75.1681,245.571)">
                            <path d="M407,234.25L591,234.25C591.398,234.25 591.78,234.174 592.148,234.022C592.516,233.869 592.84,233.653 593.121,233.371C593.403,233.09 593.619,232.766 593.772,232.398C593.924,232.031 594,231.648 594,231.25L594,217.25C594,216.852 593.924,216.47 593.772,216.102C593.619,215.734 593.403,215.41 593.121,215.129C592.84,214.847 592.516,214.631 592.148,214.478C591.78,214.326 591.398,214.25 591,214.25L407,214.25C406.602,214.25 406.219,214.326 405.852,214.478C405.484,214.631 405.16,214.847 404.879,215.129C404.597,215.41 404.381,215.734 404.228,216.102C404.076,216.47 404,216.852 404,217.25L404,231.25C404,231.648 404.076,232.031 404.228,232.398C404.381,232.766 404.597,233.09 404.879,233.371C405.16,233.653 405.484,233.869 405.852,234.022C406.219,234.174 406.602,234.25 407,234.25Z" style="fill:rgb(218,232,252);fill-rule:nonzero;stroke:rgb(108,142,191);stroke-width:1px;stroke-miterlimit:4;"/>
                        </g>
                        <g transform="matrix(0.393365,0,0,-0.393365,75.1681,245.571)">
                            <path d="M717,234.25L761,234.25C761.398,234.25 761.78,234.174 762.148,234.022C762.515,233.869 762.84,233.653 763.121,233.371C763.402,233.09 763.619,232.766 763.772,232.398C763.924,232.031 764,231.648 764,231.25L764,217.25C764,216.852 763.924,216.47 763.772,216.102C763.619,215.734 763.402,215.41 763.121,215.129C762.84,214.847 762.515,214.631 762.148,214.478C761.78,214.326 761.398,214.25 761,214.25L717,214.25C716.602,214.25 716.219,214.326 715.852,214.478C715.484,214.631 715.16,214.847 714.879,215.129C714.597,215.41 714.381,215.734 714.228,216.102C714.076,216.47 714,216.852 714,217.25L714,231.25C714,231.648 714.076,232.031 714.228,232.398C714.381,232.766 714.597,233.09 714.879,233.371C715.16,233.653 715.484,233.869 715.852,234.022C716.219,234.174 716.602,234.25 717,234.25Z" style="fill:rgb(218,232,252);fill-rule:nonzero;stroke:rgb(108,142,191);stroke-width:1px;stroke-miterlimit:4;"/>
                        </g>
                        <g transform="matrix(0.393365,0,0,-0.393365,75.1681,464.478)">
                            <path d="M381.05,517.5L414.55,517.5C415.147,517.5 415.721,517.386 416.272,517.158C416.823,516.929 417.31,516.604 417.732,516.182C418.154,515.76 418.479,515.273 418.707,514.722C418.936,514.171 419.05,513.597 419.05,513L419.05,492C419.05,491.403 418.936,490.829 418.707,490.278C418.479,489.727 418.154,489.24 417.732,488.818C417.31,488.396 416.823,488.071 416.272,487.843C415.721,487.614 415.147,487.5 414.55,487.5L381.05,487.5C380.453,487.5 379.879,487.614 379.328,487.843C378.777,488.071 378.29,488.396 377.868,488.818C377.446,489.24 377.121,489.727 376.892,490.278C376.664,490.829 376.55,491.403 376.55,492L376.55,513C376.55,513.597 376.664,514.171 376.892,514.722C377.121,515.273 377.446,515.76 377.868,516.182C378.29,516.604 378.777,516.929 379.328,517.158C379.879,517.386 380.453,517.5 381.05,517.5Z" style="fill:rgb(255,230,204);fill-rule:nonzero;stroke:black;stroke-width:1px;stroke-miterlimit:4;"/>
                        </g>
                        <g transform="matrix(0.393365,0,0,-0.393365,75.1681,505.388)">
                            <path d="M349.4,566.5L415.45,566.5C415.927,566.5 416.387,566.409 416.828,566.226C417.269,566.043 417.658,565.783 417.996,565.446C418.333,565.108 418.593,564.719 418.776,564.278C418.959,563.837 419.05,563.377 419.05,562.9L419.05,546.1C419.05,545.623 418.959,545.163 418.776,544.722C418.593,544.281 418.333,543.892 417.996,543.554C417.658,543.217 417.269,542.957 416.828,542.774C416.387,542.591 415.927,542.5 415.45,542.5L349.4,542.5C348.923,542.5 348.463,542.591 348.022,542.774C347.581,542.957 347.192,543.217 346.854,543.554C346.517,543.892 346.257,544.281 346.074,544.722C345.891,545.163 345.8,545.623 345.8,546.1L345.8,562.9C345.8,563.377 345.891,563.837 346.074,564.278C346.257,564.719 346.517,565.108 346.854,565.446C347.192,565.783 347.581,566.043 348.022,566.226C348.463,566.409 348.923,566.5 349.4,566.5Z" style="fill:rgb(218,232,252);fill-rule:nonzero;stroke:rgb(108,142,191);stroke-width:1px;stroke-miterlimit:4;"/>
                        </g>
                        <g transform="matrix(0.393365,0,0,-0.393365,75.1681,527.22)">
                            <path d="M376.05,594.5L415.38,594.5C415.867,594.5 416.335,594.407 416.784,594.221C417.234,594.034 417.631,593.769 417.975,593.425C418.319,593.081 418.584,592.684 418.771,592.235C418.957,591.785 419.05,591.317 419.05,590.83L419.05,573.67C419.05,573.183 418.957,572.715 418.771,572.266C418.584,571.816 418.319,571.419 417.975,571.075C417.631,570.731 417.234,570.466 416.784,570.279C416.335,570.093 415.867,570 415.38,570L376.05,570C375.563,570 375.095,570.093 374.646,570.279C374.196,570.466 373.799,570.731 373.455,571.075C373.111,571.419 372.846,571.816 372.659,572.266C372.473,572.715 372.38,573.183 372.38,573.67L372.38,590.83C372.38,591.317 372.473,591.785 372.659,592.235C372.846,592.684 373.111,593.081 373.455,593.425C373.799,593.769 374.196,594.034 374.646,594.221C375.095,594.407 375.563,594.5 376.05,594.5Z" style="fill:rgb(186,200,211);fill-rule:nonzero;stroke:rgb(35,68,93);stroke-width:1px;stroke-miterlimit:4;"/>
                        </g>
                        <g transform="matrix(0.393365,0,0,-0.393365,75.1681,431.239)">
                            <path d="M617.13,474L676.37,474C676.918,474 677.444,473.895 677.95,473.686C678.456,473.476 678.903,473.178 679.29,472.79C679.677,472.403 679.976,471.957 680.186,471.451C680.395,470.945 680.5,470.418 680.5,469.87L680.5,450.63C680.5,450.082 680.395,449.556 680.186,449.05C679.976,448.544 679.677,448.097 679.29,447.71C678.903,447.322 678.456,447.024 677.95,446.814C677.444,446.605 676.918,446.5 676.37,446.5L617.13,446.5C616.582,446.5 616.055,446.605 615.549,446.814C615.044,447.024 614.597,447.322 614.21,447.71C613.822,448.097 613.524,448.544 613.314,449.05C613.105,449.556 613,450.082 613,450.63L613,469.87C613,470.418 613.105,470.945 613.314,471.451C613.524,471.957 613.822,472.403 614.21,472.79C614.597,473.178 615.044,473.476 615.55,473.686C616.055,473.895 616.582,474 617.13,474Z" style="fill:rgb(186,200,211);fill-rule:nonzero;stroke:rgb(35,68,93);stroke-width:1px;stroke-miterlimit:4;"/>
                        </g>
                        <g transform="matrix(3.93365,0,0,3.93365,291.232,267.599)">
                        </g>
                        <text x="275.28px" y="267.599px" style="font-family:'ArialMT', 'Arial', sans-serif;font-size:3.934px;">rdfs:label</text>
                        <g>
                            <text x="319.368px" y="298.675px" style="font-family:'ArialMT', 'Arial', sans-serif;font-size:3.934px;">xsd:positiveInteger</text>
                            <text x="319.368px" y="315.199px" style="font-family:'ArialMT', 'Arial', sans-serif;font-size:3.934px;">xsd:positiveInteger</text>
                            <g transform="matrix(3.93365,0,0,3.93365,338.647,330.142)">
                            </g>
                            <text x="320.296px" y="330.142px" style="font-family:'ArialMT', 'Arial', sans-serif;font-size:3.934px;">rdfs:Literal</text>
                        </g>
                        <g transform="matrix(3.93365,0,0,3.93365,192.516,190.893)">
                        </g>
                        <text x="154.486px" y="190.893px" style="font-family:'ArialMT', 'Arial', sans-serif;font-size:3.934px;">observatory:repost_of</text>
                        <g transform="matrix(3.93365,0,0,3.93365,147.097,199.547)">
                        </g>
                        <text x="112.568px" y="199.547px" style="font-family:'ArialMT', 'Arial', sans-serif;font-size:3.934px;">observatory:RePost</text>
                        <g transform="matrix(3.93365,0,0,3.93365,190.241,207.808)">
                        </g>
                        <text x="162.274px" y="207.808px" style="font-family:'ArialMT', 'Arial', sans-serif;font-size:3.934px;">rdfs:subClassOf</text>
                        <g transform="matrix(3.93365,0,0,3.93365,184.63,226.689)">
                        </g>
                        <text x="149.004px" y="226.689px" style="font-family:'ArialMT', 'Arial', sans-serif;font-size:3.934px;">observatory:reply_of</text>
                        <g transform="matrix(3.93365,0,0,3.93365,145.684,215.282)">
                        </g>
                        <text x="113.994px" y="215.282px" style="font-family:'ArialMT', 'Arial', sans-serif;font-size:3.934px;">observatory:Reply</text>
                        <g>
                            <g transform="matrix(3.93365,0,0,3.93365,118.082,264.846)">
                            </g>
                            <g transform="matrix(3.93365,0,0,3.93365,119.174,264.846)">
                            </g>
                            <text x="108.407px" y="264.846px" style="font-family:'ArialMT', 'Arial', sans-serif;font-size:3.934px;">@prex observatory: &lt;http://example.org/muhai/observatory#&gt; .</text>
                            <g transform="matrix(3.93365,0,0,3.93365,118.079,270.749)">
                            </g>
                            <g transform="matrix(3.93365,0,0,3.93365,119.172,270.749)">
                            </g>
                            <text x="108.407px" y="270.749px" style="font-family:'ArialMT', 'Arial', sans-serif;font-size:3.934px;">@prex rdfs: &lt;http://www<tspan x="152.303px 153.395px " y="270.749px 270.749px ">.w</tspan>3.org/2000/01/rdf-schema#&gt; .</text>
                            <g transform="matrix(3.93365,0,0,3.93365,118.079,276.253)">
                            </g>
                            <g transform="matrix(3.93365,0,0,3.93365,119.171,276.253)">
                            </g>
                            <text x="108.407px" y="276.253px" style="font-family:'ArialMT', 'Arial', sans-serif;font-size:3.934px;">@prex rdf: &lt;http://www<tspan x="150.336px 151.428px " y="276.253px 276.253px ">.w</tspan>3.org/1999/02/22-rdf-syntax-ns#&gt; .</text>
                            <g transform="matrix(3.93365,0,0,3.93365,118.08,282.157)">
                            </g>
                            <g transform="matrix(3.93365,0,0,3.93365,119.173,282.157)">
                            </g>
                            <text x="108.407px" y="282.157px" style="font-family:'ArialMT', 'Arial', sans-serif;font-size:3.934px;">@prex sioc: &lt;http://rdfs.org/sioc/ns#&gt; .</text>
                            <g transform="matrix(3.93365,0,0,3.93365,118.08,287.66)">
                            </g>
                            <g transform="matrix(3.93365,0,0,3.93365,119.172,287.66)">
                            </g>
                            <text x="108.407px" y="287.66px" style="font-family:'ArialMT', 'Arial', sans-serif;font-size:3.934px;">@prex nee: &lt;http://www<tspan x="152.309px 153.4px " y="287.66px 287.66px ">.i</tspan>cs.forth.gr/isl/oae/core#&gt; .</text>
                            <g transform="matrix(3.93365,0,0,3.93365,118.081,293.164)">
                            </g>
                            <g transform="matrix(3.93365,0,0,3.93365,119.173,293.164)">
                            </g>
                            <text x="108.407px" y="293.164px" style="font-family:'ArialMT', 'Arial', sans-serif;font-size:3.934px;">@prex schema: &lt;http://schema.org/&gt; .</text>
                            <g transform="matrix(3.93365,0,0,3.93365,118.08,299.067)">
                            </g>
                            <g transform="matrix(3.93365,0,0,3.93365,119.172,299.067)">
                            </g>
                            <text x="108.407px" y="299.067px" style="font-family:'ArialMT', 'Arial', sans-serif;font-size:3.934px;">@prex dc: &lt;http://purl.org/dc/terms/&gt; .</text>
                            <g transform="matrix(3.93365,0,0,3.93365,118.081,304.571)">
                            </g>
                            <g transform="matrix(3.93365,0,0,3.93365,119.173,304.571)">
                            </g>
                            <text x="108.407px" y="304.571px" style="font-family:'ArialMT', 'Arial', sans-serif;font-size:3.934px;">@prex earmark: &lt;http://www<tspan x="160.172px 161.264px " y="304.571px 304.571px ">.e</tspan>ssepuntato.it/2008/12/earmark&gt; .</text>
                            <g transform="matrix(3.93365,0,0,3.93365,118.08,310.075)">
                            </g>
                            <g transform="matrix(3.93365,0,0,3.93365,119.172,310.075)">
                            </g>
                            <text x="108.407px" y="310.075px" style="font-family:'ArialMT', 'Arial', sans-serif;font-size:3.934px;">@prex xsd: &lt;http://www<tspan x="151.867px 152.959px " y="310.075px 310.075px ">.w</tspan>3.org/2001/XMLSchema#&gt; .</text>
                            <g transform="matrix(3.93365,0,0,3.93365,118.081,315.978)">
                            </g>
                            <g transform="matrix(3.93365,0,0,3.93365,119.174,315.978)">
                            </g>
                            <g transform="matrix(3.93365,0,0,3.93365,240.223,315.978)">
                            </g>
                            <text x="108.407px" y="315.978px" style="font-family:'ArialMT', 'Arial', sans-serif;font-size:3.934px;">@prex nif: &lt;http://persistence.uni-leipzig.org/nlp2rdf/ontologies/nif-core#&gt; .</text>
                        </g>
                        <g transform="matrix(4.72038,0,0,4.72038,289.221,129.135)">
                        </g>
                        <text x="242.268px" y="129.135px" style="font-family:'ArialMT', 'Arial', sans-serif;font-size:4.72px;">observatory:nb_repost</text>
                        <g transform="matrix(4.72038,0,0,4.72038,286.203,144.869)">
                        </g>
                        <text x="245.286px" y="144.869px" style="font-family:'ArialMT', 'Arial', sans-serif;font-size:4.72px;">observatory:nb_like</text>
                        <g transform="matrix(4.72038,0,0,4.72038,409.316,137.002)">
                        </g>
                        <text x="356.609px" y="137.002px" style="font-family:'ArialMT', 'Arial', sans-serif;font-size:4.72px;">observatory:post_metrics</text>
                        <g transform="matrix(4.32702,0,0,4.32702,348.202,159.03)">
                        </g>
                        <text x="311.912px" y="159.03px" style="font-family:'ArialMT', 'Arial', sans-serif;font-size:4.327px;">rdfs:subPropertyOf</text>
                        <g transform="matrix(4.72038,0,0,4.72038,306.786,158.637)">
                        </g>
                        <text x="235.698px" y="158.637px" style="font-family:'ArialMT', 'Arial', sans-serif;font-size:4.72px;">observatory: dependency_relation</text>
                        <g transform="matrix(4.72038,0,0,4.72038,373.388,158.637)">
                        </g>
                        <text x="357.924px" y="158.637px" style="font-family:'ArialMT', 'Arial', sans-serif;font-size:4.72px;">nif:inter</text>
                        <g transform="matrix(3.14692,0,0,3.14692,238.45,268.386)">
                        </g>
                        <text x="224.991px" y="268.386px" style="font-family:'ArialMT', 'Arial', sans-serif;font-size:3.147px;">owl:Class</text>
                        <g>
                            <text x="212.139px" y="288.841px" style="font-family:'ArialMT', 'Arial', sans-serif;font-size:3.147px;">owl:ObjectProperty</text>
                            <g transform="matrix(3.14692,0,0,3.14692,237.877,299.458)">
                            </g>
                            <text x="223.196px" y="299.458px" style="font-family:'ArialMT', 'Arial', sans-serif;font-size:3.147px;">rdfs:Literal</text>
                        </g>
                        <g transform="matrix(3.93365,0,0,3.93365,340.077,251.471)">
                        </g>
                        <text x="318.87px" y="251.471px" style="font-family:'ArialMT', 'Arial', sans-serif;font-size:3.934px;">xsd:boolean</text>
                        <g transform="matrix(0.393365,0,0,-0.393365,75.1681,181.255)">
                            <path d="M549,169L580,169L580,116L706.38,116" style="fill:none;fill-rule:nonzero;stroke:black;stroke-width:1px;"/>
                        </g>
                        <g transform="matrix(-0.351836,0.175918,-0.175918,-0.351836,632.598,70.5125)">
                            <path d="M705,167.435L712.826,167.435L709.695,169.783L709.695,173.696L705,167.435Z" style="fill-rule:nonzero;stroke:black;stroke-width:1px;"/>
                        </g>
                        <g transform="matrix(0.393365,0,0,-0.393365,75.1681,160.407)">
                            <path d="M382,126L546,126C546.398,126 546.78,125.924 547.148,125.772C547.516,125.619 547.84,125.403 548.121,125.121C548.403,124.84 548.619,124.516 548.772,124.148C548.924,123.781 549,123.398 549,123L549,109C549,108.602 548.924,108.22 548.772,107.852C548.619,107.484 548.403,107.16 548.121,106.879C547.84,106.597 547.516,106.381 547.148,106.228C546.78,106.076 546.398,106 546,106L382,106C381.602,106 381.219,106.076 380.852,106.228C380.484,106.381 380.16,106.597 379.879,106.879C379.597,107.16 379.381,107.484 379.228,107.852C379.076,108.22 379,108.602 379,109L379,123C379,123.398 379.076,123.781 379.228,124.148C379.381,124.516 379.597,124.84 379.879,125.121C380.16,125.403 380.484,125.619 380.852,125.772C381.219,125.924 381.602,126 382,126Z" style="fill:rgb(218,232,252);fill-rule:nonzero;stroke:rgb(108,142,191);stroke-width:1px;stroke-miterlimit:4;"/>
                        </g>
                        <g transform="matrix(4.72038,0,0,4.72038,289.078,116.154)">
                        </g>
                        <text x="225.876px" y="116.154px" style="font-family:'ArialMT', 'Arial', sans-serif;font-size:4.72px;">observatory:subjectivity_score</text>
                        <g transform="matrix(0.393365,0,0,-0.393365,75.1681,167.094)">
                            <path d="M536.5,169L580,169L580,80L706.38,80" style="fill:none;fill-rule:nonzero;stroke:black;stroke-width:1px;"/>
                        </g>
                        <g transform="matrix(-0.351836,0.175918,-0.175918,-0.351836,632.598,70.5125)">
                            <path d="M705,167.435L712.826,167.435L709.695,169.783L709.695,173.696L705,167.435Z" style="fill-rule:nonzero;stroke:black;stroke-width:1px;"/>
                        </g>
                        <g transform="matrix(0.393365,0,0,-0.393365,75.1681,132.085)">
                            <path d="M394.5,90L533.5,90C533.898,90 534.28,89.924 534.648,89.772C535.016,89.619 535.34,89.403 535.621,89.121C535.903,88.84 536.119,88.516 536.272,88.148C536.424,87.781 536.5,87.398 536.5,87L536.5,73C536.5,72.602 536.424,72.219 536.272,71.852C536.119,71.484 535.903,71.16 535.621,70.879C535.34,70.597 535.016,70.381 534.648,70.228C534.28,70.076 533.898,70 533.5,70L394.5,70C394.102,70 393.719,70.076 393.352,70.228C392.984,70.381 392.66,70.597 392.379,70.879C392.097,71.16 391.881,71.484 391.728,71.852C391.576,72.219 391.5,72.602 391.5,73L391.5,87C391.5,87.398 391.576,87.781 391.728,88.148C391.881,88.516 392.097,88.84 392.379,89.121C392.66,89.403 392.984,89.619 393.352,89.772C393.719,89.924 394.102,90 394.5,90Z" style="fill:rgb(218,232,252);fill-rule:nonzero;stroke:rgb(108,142,191);stroke-width:1px;stroke-miterlimit:4;"/>
                        </g>
                        <g transform="matrix(0.393365,0,0,-0.393365,75.1681,155.293)">
                            <path d="M544,169L580,169L580,50L706.38,50" style="fill:none;fill-rule:nonzero;stroke:black;stroke-width:1px;"/>
                        </g>
                        <g transform="matrix(-0.351836,0.175918,-0.175918,-0.351836,632.598,70.5125)">
                            <path d="M705,167.435L712.826,167.435L709.695,169.783L709.695,173.696L705,167.435Z" style="fill-rule:nonzero;stroke:black;stroke-width:1px;"/>
                        </g>
                        <g transform="matrix(0.393365,0,0,-0.393365,75.1681,108.483)">
                            <path d="M387,60L541,60C541.398,60 541.78,59.924 542.148,59.772C542.516,59.619 542.84,59.403 543.121,59.121C543.403,58.84 543.619,58.516 543.772,58.148C543.924,57.781 544,57.398 544,57L544,43C544,42.602 543.924,42.219 543.772,41.852C543.619,41.484 543.403,41.16 543.121,40.879C542.84,40.597 542.516,40.381 542.148,40.228C541.78,40.076 541.398,40 541,40L387,40C386.602,40 386.219,40.076 385.852,40.228C385.484,40.381 385.16,40.597 384.879,40.879C384.597,41.16 384.381,41.484 384.228,41.852C384.076,42.219 384,42.602 384,43L384,57C384,57.398 384.076,57.781 384.228,58.148C384.381,58.516 384.597,58.84 384.879,59.121C385.16,59.403 385.484,59.619 385.852,59.772C386.219,59.924 386.602,60 387,60Z" style="fill:rgb(218,232,252);fill-rule:nonzero;stroke:rgb(108,142,191);stroke-width:1px;stroke-miterlimit:4;"/>
                        </g>
                        <g transform="matrix(0.393365,0,0,-0.393365,75.1681,194.237)">
                            <path d="M550,169L580,169L580,149L706.38,149" style="fill:none;fill-rule:nonzero;stroke:black;stroke-width:1px;"/>
                        </g>
                        <g transform="matrix(-0.351836,0.175918,-0.175918,-0.351836,632.598,70.5125)">
                            <path d="M705,167.435L712.826,167.435L709.695,169.783L709.695,173.696L705,167.435Z" style="fill-rule:nonzero;stroke:black;stroke-width:1px;"/>
                        </g>
                        <g transform="matrix(0.393365,0,0,-0.393365,75.1681,209.971)">
                            <path d="M550,169L580,169L580,189L706.38,189" style="fill:none;fill-rule:nonzero;stroke:black;stroke-width:1px;"/>
                        </g>
                        <g transform="matrix(-0.351836,0.175918,-0.175918,-0.351836,632.598,70.5125)">
                            <path d="M705,167.435L712.826,167.435L709.695,169.783L709.695,173.696L705,167.435Z" style="fill-rule:nonzero;stroke:black;stroke-width:1px;"/>
                        </g>
                        <g transform="matrix(0.393365,0,0,-0.393365,74.9714,203.087)">
                            <rect x="591" y="164" width="93" height="13" style="fill:white;"/>
                        </g>
                        <g transform="matrix(0.393365,0,0,-0.393365,75.1681,299.462)">
                            <path d="M718.13,306.5L777.37,306.5C777.918,306.5 778.444,306.395 778.95,306.186C779.456,305.976 779.903,305.678 780.29,305.29C780.678,304.903 780.976,304.457 781.186,303.95C781.395,303.445 781.5,302.918 781.5,302.37L781.5,283.13C781.5,282.582 781.395,282.056 781.186,281.55C780.976,281.044 780.678,280.597 780.29,280.21C779.903,279.822 779.456,279.524 778.95,279.314C778.444,279.105 777.918,279 777.37,279L718.13,279C717.582,279 717.055,279.105 716.549,279.314C716.043,279.524 715.597,279.822 715.21,280.21C714.822,280.597 714.524,281.044 714.314,281.55C714.105,282.056 714,282.582 714,283.13L714,302.37C714,302.918 714.105,303.445 714.314,303.95C714.524,304.457 714.822,304.903 715.21,305.29C715.597,305.678 716.043,305.976 716.549,306.186C717.055,306.395 717.582,306.5 718.13,306.5Z" style="fill:rgb(186,200,211);fill-rule:nonzero;stroke:rgb(35,68,93);stroke-width:1px;stroke-miterlimit:4;"/>
                        </g>
                        <g transform="matrix(4.72038,0,0,4.72038,285.344,101.992)">
                        </g>
                        <text x="230.006px" y="101.992px" style="font-family:'ArialMT', 'Arial', sans-serif;font-size:4.72px;">observatory:polarity_score</text>
                        <g transform="matrix(4.72038,0,0,4.72038,286.982,90.1915)">
                        </g>
                        <text x="227.972px" y="90.191px" style="font-family:'ArialMT', 'Arial', sans-serif;font-size:4.72px;">observatory:sentiment_label</text>
                        <g transform="matrix(4.32702,0,0,4.32702,343.875,137.395)">
                        </g>
                        <text x="307.585px" y="137.395px" style="font-family:'ArialMT', 'Arial', sans-serif;font-size:4.327px;">rdfs:subPropertyOf</text>
                        <g transform="matrix(3.93365,0,0,3.93365,378.377,185.779)">
                        </g>
                        <text x="360.026px" y="185.779px" style="font-family:'ArialMT', 'Arial', sans-serif;font-size:3.934px;">rdfs:Literal</text>
                    </g>
                </g>
            </g>
        </g>
    </g>
</svg>
